<svg xmlns="http://www.w3.org/2000/svg"  viewBox="0 0 100 100" width="200px" height="200px" fill-rule="evenodd" clip-rule="evenodd"><path d="M34.423,98c-4.896,0-8.537-1.726-11.455-5.432l-9.842-12.756C10.26,75.998,9,72.626,9,68.831V23.335 c0-7.208,4.774-12.462,11.879-13.074l41.667-3.065C64.103,7.062,65.289,7,66.331,7c4.873,0,7.775,1.414,11.14,3.855l13.347,9.372 l0.341,0.249c2.335,1.704,5.869,4.282,5.869,10.005V81c0,7.695-5.678,13.444-13.528,14l-47.646,2.962 C35.308,97.989,34.853,98,34.423,98z" opacity=".35"/><path fill="#f2f2f2" d="M32.396,96c-4.896,0-8.537-1.726-11.455-5.432l-9.842-12.756c-2.866-3.814-4.126-7.186-4.126-10.981 V21.335c0-7.208,4.774-12.462,11.879-13.074l41.667-3.065C62.075,5.062,63.261,5,64.303,5c4.873,0,7.775,1.414,11.14,3.855 l13.347,9.372l0.341,0.249C91.466,20.18,95,22.758,95,28.48v51.182c0,7.695-4.876,12.82-12.726,13.376l-48.448,2.923 C33.28,95.989,32.825,96,32.396,96z"/><path fill="#707cc0" fill-rule="evenodd" d="M19.5,16.234l41.64-3.063c5.114-0.437,6.429-0.144,9.642,2.187 l13.293,9.332C86.268,26.296,87,26.731,87,28.481v51.182c0,3.207-1.17,5.105-5.26,5.394l-48.357,2.918 c-3.071,0.146-4.532-0.292-6.139-2.333l-9.788-12.686c-1.753-2.335-2.483-4.082-2.483-6.125V21.335 C14.972,18.713,16.142,16.524,19.5,16.234z" clip-rule="evenodd"/><path fill="#f2f2f2" fill-rule="evenodd" d="M30,35.676v43.258c0,2.324,1.164,3.195,3.787,3.052	l45.297-2.614C81.707,79.227,82,77.627,82,75.739V32.771c0-1.885-0.728-2.903-2.332-2.758l-47.336,2.758	C30.584,32.916,30,33.789,30,35.676L30,35.676z" clip-rule="evenodd"/><path fill="#707cc0" fill-rule="evenodd" d="M74.832,38c0.291,1.311,0,2.619-1.314,2.767l-2.184,0.434	v31.998c-1.896,1.018-3.645,1.6-5.101,1.6c-2.333,0-2.917-0.727-4.664-2.908L47.286,49.492v21.671l4.52,1.018	c0,0,0,2.618-3.647,2.618L38.107,75.38c-0.291-0.582,0-2.036,1.019-2.327l2.624-0.727V43.675l-3.643-0.291	c-0.293-1.311,0.435-3.199,2.477-3.346l10.784-0.727l14.864,22.691V41.928l-3.791-0.434c-0.291-1.601,0.873-2.765,2.331-2.908	L74.832,38z" clip-rule="evenodd"/><path fill="#f2f2f2" fill-rule="evenodd" d="M27.05,26.049c2.363,1.918,3.249,1.772,7.688,1.475l41.839-2.51	c0.888,0,0.15-0.883-0.146-1.031l-6.948-5.018c-1.331-1.033-3.105-2.215-6.504-1.92l-40.511,2.951	c-1.477,0.146-1.772,0.883-1.183,1.475L27.05,26.049z" clip-rule="evenodd"/><path fill="#40396e" d="M64.303,13c2.711,0,4.055,0.599,6.479,2.358l13.293,9.332C86.268,26.296,87,26.731,87,28.481v51.182 c0,3.207-1.17,5.105-5.26,5.394l-48.357,2.918C33.034,87.991,32.705,88,32.395,88c-2.418,0-3.727-0.549-5.152-2.358l-9.788-12.686 c-1.753-2.335-2.483-4.082-2.483-6.125V21.335c0-2.622,1.17-4.811,4.528-5.101l41.64-3.063C62.395,13.063,63.421,13,64.303,13 M64.303,10C64.303,10,64.303,10,64.303,10c-0.897,0-1.951,0.056-3.419,0.182L19.28,13.242c-4.522,0.39-7.308,3.49-7.308,8.093 v45.496c0,2.678,0.922,5.048,3.084,7.927l9.812,12.717C26.846,89.985,29.021,91,32.395,91c0.355,0,0.73-0.01,1.13-0.029 l48.396-2.92C87.217,87.676,90,84.776,90,79.662V28.481c0-3.181-1.77-4.472-3.819-5.967l-0.334-0.244 c-0.016-0.012-0.032-0.023-0.048-0.035l-13.293-9.332C69.808,10.945,67.877,10,64.303,10L64.303,10z"/></svg>