<svg xmlns="http://www.w3.org/2000/svg" width="32" height="24" fill="none"><mask id="a" width="32" height="24" x="0" y="0" maskUnits="userSpaceOnUse" style="mask-type:luminance"><path fill="#fff" d="M0 0h32v24H0z"/></mask><g mask="url(#a)"><path fill="#F7FCFF" fill-rule="evenodd" d="M0 0v24h32V0H0z" clip-rule="evenodd"/><mask id="b" width="32" height="24" x="0" y="0" maskUnits="userSpaceOnUse" style="mask-type:luminance"><path fill="#fff" fill-rule="evenodd" d="M0 0v24h32V0H0z" clip-rule="evenodd"/></mask><g fill="#58A5FF" fill-rule="evenodd" clip-rule="evenodd" mask="url(#b)"><path d="M0 0v7h32V0H0zm0 17v7h32v-7H0z"/></g></g><path fill="#FFC125" fill-rule="evenodd" d="M15.22 7.128a.134.134 0 0 0-.179.06c-.148.297-.038.558.051.77l.027.066a4.65 4.65 0 0 0 .108.25c.024.055.044.096.06.13a.491.491 0 0 1 .067.276c0 .07-.002.154-.004.245-.009.439-.022 1.055.137 1.312.038.063.23-.035.293-.073.063-.038.039-.241 0-.303-.16-.26-.16-.79-.16-1.157V8.68a.736.736 0 0 0-.092-.386 5.356 5.356 0 0 1-.055-.123l-.06-.134a3.945 3.945 0 0 1-.046-.11c-.01-.026-.024-.053-.038-.083-.068-.137-.158-.32-.049-.54a.13.13 0 0 0-.06-.176zm1.953.079a.134.134 0 0 0-.187-.015c-.252.216-.253.5-.254.73l-.001.071v.127l.002.145c0 .06.002.105.004.143a.49.49 0 0 1-.046.28l-.1.225c-.18.4-.432.962-.386 1.26.01.073.225.058.298.048.072-.01.13-.207.12-.279-.047-.301.16-.79.304-1.127l.01-.023c.071-.169.069-.238.065-.392a28.916 28.916 0 0 0-.005-.4l-.003-.091c-.009-.153-.02-.357.167-.516a.13.13 0 0 0 .012-.186zm1.583.718a.134.134 0 0 1 .168.083.13.13 0 0 1-.08.168c-.234.078-.3.271-.349.416-.01.031-.02.06-.031.086a4.243 4.243 0 0 0-.045.11l-.053.137c-.02.048-.035.09-.048.125a.738.738 0 0 1-.207.34l-.018.017c-.259.26-.634.634-.704.93-.017.072-.144.232-.215.215-.072-.018-.276-.085-.26-.155.07-.295.515-.721.832-1.025.066-.063.126-.121.176-.171.099-.098.113-.142.148-.242.013-.036.027-.08.05-.135l.052-.134a4.444 4.444 0 0 1 .075-.184c.087-.214.195-.476.509-.581zm1.494 1.509a.134.134 0 0 0-.122-.143c-.33-.026-.532.173-.696.336a3.987 3.987 0 0 0-.14.14l-.102.103c-.042.043-.072.076-.098.104a.492.492 0 0 1-.23.166l-.23.088c-.41.156-.986.375-1.165.619-.043.058.12.2.178.243.058.044.238-.053.281-.112.18-.246.673-.445 1.013-.582l.023-.01c.17-.068.217-.118.323-.23.026-.028.056-.06.093-.097l.102-.105c.032-.033.058-.06.084-.084l.063-.067c.102-.114.238-.266.483-.247a.13.13 0 0 0 .14-.122zm.606 1.615a.134.134 0 0 1 .06.178.13.13 0 0 1-.176.061c-.22-.11-.402-.02-.54.048-.03.015-.057.029-.083.039a20.447 20.447 0 0 1-.367.16.726.726 0 0 1-.385.093h-.025c-.367 0-.897 0-1.157.16-.062.039-.265.062-.303 0-.038-.063-.135-.255-.073-.293.257-.159.873-.146 1.312-.137.091.002.175.004.246.004a.49.49 0 0 0 .276-.067 2.86 2.86 0 0 1 .13-.06 35.983 35.983 0 0 0 .249-.108l.066-.027c.212-.09.474-.199.77-.051zm-.019 2.115a.134.134 0 0 0 .015-.188c-.216-.252-.5-.253-.73-.254h-.071c-.04-.002-.078-.001-.127 0l-.145.001c-.06 0-.105.003-.143.005a.492.492 0 0 1-.28-.047l-.225-.1c-.4-.179-.962-.432-1.26-.386-.073.011-.058.225-.048.298.01.073.207.13.279.12.301-.047.79.16 1.127.304l.023.01c.169.071.238.07.392.065.038-.001.082-.003.134-.003l.146-.002h.12c.027 0 .058 0 .091-.003.153-.008.357-.02.516.167a.13.13 0 0 0 .186.013zm-.725 1.566a.134.134 0 0 1-.083.169.13.13 0 0 1-.168-.082c-.078-.232-.271-.298-.416-.348a.935.935 0 0 1-.086-.031 30.231 30.231 0 0 1-.247-.098c-.048-.02-.09-.034-.126-.048a.736.736 0 0 1-.338-.207l-.018-.017c-.26-.26-.634-.635-.93-.705-.072-.017-.232-.144-.215-.215.018-.071.084-.276.155-.259.294.07.721.515 1.025.831.063.066.121.126.171.176a.482.482 0 0 0 .242.148c.036.013.08.028.134.05a26.542 26.542 0 0 0 .253.1l.066.027c.213.088.476.195.581.509zm-1.521 1.482a.134.134 0 0 0 .143-.123c.025-.33-.174-.531-.337-.695a4.453 4.453 0 0 0-.243-.242c-.042-.042-.076-.072-.104-.097a.492.492 0 0 1-.165-.231 12.594 12.594 0 0 1-.089-.23c-.156-.41-.375-.986-.618-1.165-.06-.043-.2.12-.244.178-.044.058.054.238.113.281.245.18.444.673.581 1.013l.01.023c.068.17.118.217.23.322l.097.094a21.944 21.944 0 0 0 .19.186c.019.02.042.04.066.063.114.102.266.238.247.483a.13.13 0 0 0 .123.14zm-1.632.6a.134.134 0 0 1-.178.06.13.13 0 0 1-.061-.176c.11-.22.02-.403-.048-.54-.015-.03-.029-.058-.039-.083a4.027 4.027 0 0 0-.046-.11l-.06-.134-.054-.123a.736.736 0 0 1-.093-.386v-.024c0-.367 0-.898-.16-1.157-.039-.062-.062-.265 0-.303.064-.038.255-.136.293-.074.159.258.146.874.137 1.313-.002.09-.004.174-.004.245 0 .14.02.18.067.276.017.034.036.075.06.13l.058.132.05.117.027.066c.09.213.199.474.051.77zm-2.132-.019a.134.134 0 0 0 .188.014c.251-.215.253-.498.254-.73v-.197l-.002-.145c0-.06-.002-.105-.004-.143-.005-.106-.008-.152.046-.28.028-.065.062-.142.1-.225.18-.4.432-.962.386-1.261-.01-.072-.225-.057-.297-.047-.073.01-.13.207-.12.279.046.301-.161.79-.304 1.127l-.01.023a.724.724 0 0 0-.065.391l.002.135a28.883 28.883 0 0 0 .002.266l.003.091c.009.153.02.357-.166.516a.13.13 0 0 0-.013.186zm-1.582-.718a.134.134 0 0 1-.17-.084.13.13 0 0 1 .082-.167c.233-.078.299-.271.348-.416.01-.032.02-.06.031-.086.015-.033.028-.068.045-.11l.053-.137c.02-.049.035-.09.048-.126.054-.144.078-.209.207-.339l.018-.017c.26-.26.634-.634.705-.931.016-.071.143-.231.215-.214.07.018.275.084.258.155-.07.294-.514.721-.83 1.025-.067.063-.127.12-.177.171-.098.098-.113.142-.148.242a1.68 1.68 0 0 1-.05.134c-.01.03-.052.135-.052.135a4.426 4.426 0 0 1-.047.118c-.01.021-.018.043-.028.066-.087.213-.194.476-.508.581zm-1.482-1.485a.134.134 0 0 0 .126.141c.33.02.528-.183.69-.348a4.286 4.286 0 0 0 .138-.142l.098-.106c.042-.043.072-.077.096-.106.07-.08.1-.115.228-.169a8.12 8.12 0 0 1 .228-.092c.407-.164.98-.393 1.154-.64.042-.059-.122-.197-.182-.24-.059-.043-.237.058-.279.118-.176.249-.665.456-1.002.599l-.023.01a.736.736 0 0 0-.319.236l-.091.098a27.332 27.332 0 0 0-.184.193 1.07 1.07 0 0 0-.06.068c-.101.116-.234.27-.48.255a.13.13 0 0 0-.138.125zm-.619-1.639a.134.134 0 0 1-.06-.178.13.13 0 0 1 .176-.061c.22.109.403.019.54-.048.03-.015.057-.029.083-.039a4.21 4.21 0 0 0 .11-.047l.134-.059c.048-.02.088-.039.123-.055.14-.064.202-.093.386-.093h.024c.367 0 .897 0 1.157-.16.062-.038.265-.062.303.001.038.063.136.255.074.293-.258.159-.874.146-1.313.137a12.481 12.481 0 0 0-.245-.004c-.14 0-.18.02-.276.067a2.86 2.86 0 0 1-.13.06 35.983 35.983 0 0 0-.25.108l-.065.027c-.213.089-.474.198-.771.051zm.02-2.115a.134.134 0 0 0-.015.188c.215.252.499.253.73.254h.198l.144-.001c.06 0 .105-.003.143-.005.107-.005.152-.008.28.047.066.027.142.062.225.1.4.179.963.431 1.261.386.072-.011.057-.226.047-.298-.01-.073-.207-.13-.279-.12-.301.047-.79-.16-1.127-.304l-.023-.01a.732.732 0 0 0-.391-.065l-.135.003a28.883 28.883 0 0 0-.266.002.705.705 0 0 0-.09.003c-.154.008-.357.02-.517-.167a.13.13 0 0 0-.186-.013zm.724-1.566a.134.134 0 0 1 .084-.169.13.13 0 0 1 .167.082c.079.232.272.298.416.347.032.011.061.021.086.032l.111.045c-.001 0 .106.04.136.053l.126.048c.144.053.21.077.339.207l.017.017c.26.26.634.635.931.705.071.017.232.144.214.215-.018.071-.084.275-.155.259-.294-.07-.721-.515-1.025-.831l-.17-.177a.492.492 0 0 0-.243-.148 2.895 2.895 0 0 1-.134-.049 28.382 28.382 0 0 0-.253-.1c-.021-.01-.043-.018-.066-.027-.213-.088-.475-.195-.58-.51zm1.521-1.482a.134.134 0 0 0-.142.122c-.026.33.173.532.336.696l.05.05a29.297 29.297 0 0 1 .194.191c.042.042.075.073.103.098.08.072.114.102.166.231l.088.23c.156.41.375.986.619 1.165.058.043.2-.12.243-.178.044-.059-.054-.238-.112-.281-.246-.18-.445-.673-.582-1.013l-.01-.023a.736.736 0 0 0-.23-.323 30.955 30.955 0 0 0-.286-.28c-.02-.02-.042-.04-.067-.062-.114-.102-.266-.238-.247-.483a.13.13 0 0 0-.123-.14z" clip-rule="evenodd"/><path fill="#984111" d="m15.041 7.188-.067-.033.067.033zm.051.77.07-.028-.07.029zm0 0-.07.03h.001l.07-.03zm.027.066-.07.028.07-.028zm.05.117-.069.03.138-.06-.069.03zm.058.133-.069.03.07-.03zm.06.13-.067.032.067-.032zm.063.521.075.002-.075-.002zm0 0-.075-.002.075.002zm.137 1.312.064-.039-.064.04zm.294-.376.063-.04-.063.04zm-.16-1.157h.075-.075zm0-.024h.075-.075zm-.093-.386.068-.032-.068.032zm-.055-.123.069-.03-.07.03zm-.06-.134-.068.03.137-.06-.068.03zm-.046-.11-.07.028.07-.028zm-.038-.083-.068.033.068-.033zm-.049-.54.068.033-.068-.033zm1.706-.112-.05-.057.05.057zm.187.015-.056.05.056-.05zm-.441.715h-.075.075zm0 0h.075-.075zm-.001.071-.075-.001.075.001zm0 .127-.075.001h.075zm0 0-.075.001h.075zm0 0h.075-.075zm.002.145h.075-.075zm.004.143-.074.004.074-.004zm-.046.28-.07-.03.07.03zm-.1.225-.068-.031.069.03zm0 0 .069.03-.069-.03zm-.386 1.26.074-.01-.074.01zm.298.048-.01-.075.01.075zm.12-.279-.075.011.074-.011zm.304-1.127.069.029v-.001l-.07-.028zm0 0-.07-.029.07.029zm0 0-.07-.03v.001l.07.029zm.01-.023.068.03-.069-.03zm.065-.392h-.075v.003l.075-.003zm0 0h.075v-.002l-.075.002zm-.003-.134h.075-.075zm-.002-.146h-.075l.15-.001h-.075zm0-.12.075.001h-.075zm-.003-.091.075-.004-.075.004zm.167-.516-.049-.057.049.057zm1.763.615-.07.025.07-.025zm-.168-.083.024.07-.024-.07zm.087.251-.024-.071.024.071zm-.348.416.071.024-.07-.024zm-.031.086.069.03-.07-.03zm-.098.247.07.028-.07-.028zm-.048.125-.07-.026.07.026zm0 0-.07-.025.07.026zm0 0 .07.028v-.002l-.07-.025zm0 0-.07-.026-.001.003.071.024zm0 0 .07.025h.001l-.071-.024zm0 0 .07.027v-.002l-.07-.024zm0 0-.07-.026v.002l.07.025zm0 0 .07.027v-.001l-.07-.025zm0 0 .07.027-.07-.026zm-.207.34.053.052-.053-.053zm-.018.017.053.053-.053-.053zm-.704.93.073.018-.073-.017zm-.215.215.018-.073-.018.073zm-.26-.155-.072-.018.073.018zm.832-1.025-.052-.054.052.054zm.324-.413L18 8.934l.07.025zm.05-.135-.07-.027.07.027zm.052-.134-.07-.028.14.055-.07-.027zm.048-.118.069.029-.07-.03zm.027-.066-.07-.029.07.03zm0 0-.07-.03v.001l.07.029zm0 0 .07.03v-.004l-.07-.026zm0 0-.07-.028v.002l.07.026zm1.88.785.006-.075-.005.075zm.123.143.075.005-.075-.005zm-.818.193-.053-.053.053.053zm0 0-.053-.053.053.053zm0 0 .053.053-.053-.053zm0 0 .052.054-.053-.054zm-.05.05-.053-.054.052.054zm-.09.09-.055-.053.108.105-.054-.052zm-.102.103-.053-.053.053.053zm-.098.104.056.05-.055-.05zm-.23.166-.028-.07.028.07zm-.23.088-.026-.07.026.07zm-1.165.619-.06-.045.06.045zm.178.243-.045.06.045-.06zm.281-.112-.06-.045.06.045zm1.013-.582.028.07-.028-.07zm.023-.01.028.07-.028-.07zm.323-.23.054.052-.054-.052zm.093-.097.053.053-.053-.053zm.102-.105-.054-.052.108.105-.054-.053zm.084-.084-.052-.054.052.054zm.063-.067-.055-.051-.001.001.056.05zm0 0 .055.052.006-.008-.061-.044zm0 0-.056-.05-.005.006.06.044zm.483-.247.005-.075-.005.075zm.746 1.493-.033.067.033-.067zm-.116.24.034-.068-.034.067zm-.54.047-.033-.067.033.067zm0 0 .033.068-.033-.068zm-.083.039-.028-.07.028.07zm-.11.046-.03-.068.06.137-.03-.069zm-.134.06.03.068-.03-.069zm-.123.054-.03-.068-.003.001.034.067zm0 0 .032.069.002-.002-.034-.067zm-.385.093v.075-.075zm-.025 0v.075-.075zm-1.157.16-.04-.063.04.063zm-.303 0 .065-.04-.065.04zm-.073-.293.04.064-.04-.064zm1.312-.137.002-.075-.002.075zm0 0-.002.075.002-.075zm.522-.063.032.068-.032-.068zm.13-.06-.03-.069.03.069zm.132-.058-.03-.069.06.137-.03-.068zm.117-.05-.028-.07.028.07zm.066-.027-.028-.07h-.002l.03.07zm0 0 .027.07h.002l-.03-.07zm.766 1.876.056-.049-.056.049zm-.73-.254v-.075.075zm0 0v.075-.075zm-.071 0 .001-.076-.001.075zm-.127 0-.001-.076v.075zm0 0v.074-.075zm0 0v-.076h-.002l.002.075zm-.145.001v.075-.075zm-.143.005-.004-.075.004.075zm-.28-.047.03-.069-.03.07zm-.225-.1-.031.069.031-.068zm0 0 .032-.067-.032.068zm-1.26-.386.01.074-.01-.074zm-.048.298-.074.01.074-.01zm.279.12-.011-.075.011.074zm1.127.304-.029.069.03-.069zm.023.01-.03.069.03-.07zm.392.065v-.075h-.003l.003.075zm0 0v.075h.002l-.003-.075zm.134-.003v.075-.075zm.146-.002v-.075l.001.15v-.075zm.12 0-.001.075v-.075zm.091-.003.004.075-.004-.075zm.516.167.057-.049-.057.049zm-.539 1.579.071-.024-.07.024zm-.251.087.071-.024-.071.024zm-.416-.348-.024.071.024-.07zm-.086-.031.03-.07-.03.07zm-.11-.045.027-.07-.055.14.027-.07zm-.137-.053-.028.07.028-.07zm-.126-.048.026-.07-.026.07zm0 0-.026.07.026-.07zm-.338-.207-.053.053.053-.053zm-.018-.017-.053.053.053-.053zm-.93-.705-.018.073.017-.073zm-.06-.474.018-.073-.018.073zm1.025.831-.054.052v.001l.054-.053zm0 0 .054-.052h-.001l-.053.052zm0 0-.054.052.054-.052zm0 0 .054-.052-.054.052zm.413.324-.024.071.024-.07zm.134.05.028-.07-.027.07zm.135.052.028-.07-.055.14.027-.07zm.118.048-.029.069.03-.07zm.066.027.028-.07-.028.07zm-.797 1.868-.075-.005.075.005zm-.143.123-.005.075.005-.075zm-.194-.818.054-.053-.053.053zm-.05-.05.055-.053-.054.052zm-.09-.09.053-.054-.105.107.053-.054zm-.103-.102.053-.053-.053.053zm-.104-.097-.053.053.003.002.05-.055zm0 0 .053-.054L18.1 15l-.05.056zm-.165-.231.07-.028-.07.028zm-.089-.23.07-.026-.07.026zm-.618-1.165.044-.06-.044.06zm-.131.46-.045.06.045-.06zm.581 1.012-.07.028.07-.028zm.01.023-.07.027.07-.027zm.23.322-.051.055.051-.055zm.097.094-.052.053.052-.053zm.105.102.052-.054-.104.107.052-.053zm.085.084.053-.052-.053.052zm.066.063-.05.056.003.002.047-.058zm0 0 .05-.056-.003-.003-.047.059zm.247.483-.075-.006.075.006zm-1.687.8.033-.067-.033.067zm.178-.06-.067-.034.067.034zm-.24-.116.068.033-.067-.033zm-.047-.54.067-.033-.067.033zm0 0-.068.033.068-.033zm-.039-.083.07-.028-.07.028zm-.046-.11.068-.03-.137.06.069-.03zm-.06-.134-.068.03.069-.03zm-.054-.123.068-.031-.068.031zm-.093-.386h-.075.075zm0-.024h-.075.075zm-.16-1.157.063-.04-.063.04zm0-.303.04.064-.04-.064zm.293-.074-.064.04.064-.04zm.137 1.313.075.002v-.001l-.075-.002zm0 0-.075-.003v.001l.075.002zm.063.521-.068.033.068-.033zm.06.13-.069.03.069-.03zm.058.132.069-.03-.137.06.068-.03zm.05.117.07-.028-.07.029zm.027.066.07-.028-.07.028zm0 0-.07.028v.001l.07-.029zm-1.893.766-.05-.057.05.057zm.254-.73.075.001h-.075zm0 0h-.075.075zm0-.07.075.001-.075-.001zm0-.127.075-.001h-.075zm0 0 .075-.002-.075.002zm-.002-.145h.075-.075zm-.004-.143.075-.004-.075.004zm0 0-.075.004.075-.004zm.046-.28.07.03-.07-.03zm.1-.225.068.031.001-.003-.07-.028zm0 0-.069-.03v.002l.069.028zm.386-1.261.075-.011-.074.011zm-.297-.047-.011-.074.01.074zm-.12.279-.074.011.074-.011zm-.304 1.127-.07-.03.07.03zm-.01.023-.07-.03.07.03zm-.065.391-.075.002.075-.002zm.002.135h.075-.075zm.002.146h.075l-.15.001h.075zm0 .12-.075-.002.075.002zm.003.091.075-.004-.075.004zm-.166.516-.05-.057.05.057zm-1.764-.616-.071.025.07-.025zm.168.084.024.071-.024-.07zm-.087-.251.024.07-.024-.07zm.348-.416.071.024-.07-.024zm.031-.086.07.03-.07-.03zm.045-.11.07.026-.14-.054.07.027zm.053-.137.07.027-.07-.027zm.048-.126-.069-.029-.001.003.07.026zm0 0 .07.029v-.003l-.07-.026zm.207-.339-.053-.053.053.053zm.018-.017-.047-.059-.006.006.053.053zm0 0 .047.059.006-.006-.053-.053zm.705-.931-.073-.017.073.017zm.473-.059-.073-.017.073.017zm-.83 1.025.05.056.001-.002-.052-.054zm0 0-.05-.056-.002.002.051.054zm0 0 .05.054h.001l-.052-.054zm0 0-.052-.055.051.055zm0 0-.053-.054.052.054zm0 0 .051.054-.052-.054zm-.177.171.053.053-.053-.053zm-.148.242.07.027v-.002l-.07-.025zm0 0-.07-.026v.002l.07.024zm-.05.134-.069-.027.07.027zm-.052.135.07.027-.14-.055.07.028zm-.047.118-.07-.03.07.03zm-.028.066.07.028-.07-.028zm-1.864-.763-.005.075.005-.075zm-.126-.14-.075-.005.075.004zm.815-.208-.054-.053.054.053zm.05-.051.053.053-.053-.053zm.088-.091.055.051-.109-.103.054.052zm.1-.106-.055-.052.055.052zm.095-.106-.056-.049.056.05zm.228-.169-.029-.069.03.07zm.228-.092-.028-.07.028.07zm0 0-.027-.07.027.07zm0 0 .027.07v-.001l-.027-.07zm1.154-.64.061.044-.06-.043zm-.182-.24-.044.06.044-.06zm-.279.118.061.043-.06-.043zm-1.002.599-.03-.069.03.069zm-.023.01-.03-.07.03.07zm-.319.236-.055-.05.055.05zm-.091.098.054.052-.054-.051zm-.1.107.054.052-.11-.103.056.051zm-.084.086-.053-.053.053.053zm-.06.068.056.049-.057-.049zm-.48.255-.004.075.005-.075zm-.817-1.692.067.032-.067-.032zm.06.178.033-.067-.033.067zm.116-.24.033-.066-.033.067zm.54-.047-.03-.069-.003.001.033.068zm0 0 .03.068.003-.001-.033-.067zm.083-.039.028.07-.028-.07zm.11-.047.03.069-.06-.137.03.068zm.134-.059-.03-.069.03.07zm.123-.055.03.069-.03-.069zm0 0 .031.069-.031-.069zm0 0 .031.068h.002l-.033-.068zm0 0-.031-.068-.003.001.034.067zm.386-.093v-.075.075zm.024 0v-.075.075zm1.157-.16-.04-.063.04.063zm.303.001.064-.038-.064.038zm.074.293-.04-.064.04.064zm-1.313.137-.002.075.002-.075zm0 0 .002-.075-.002.075zm-.521.063.033.067-.033-.067zm-.13.06-.03-.07.03.07zm-.133.058.03.069-.06-.138.03.069zm-.117.05.028.07-.028-.07zm-.065.027.028.07v-.001l-.028-.07zm0 0-.029-.07.029.07zm-.766-1.876.057-.049-.057.049zm.014-.188.05.057-.05-.057zm.715.442v.075-.075zm0 0v-.075.075zm.071 0v.076-.075zm.128 0v.076-.075zm0 0v.076-.075zm0 0 .001.076-.001-.075zm.144-.001v-.075.075zm.143-.005v-.075h-.004l.004.075zm0 0v.075h.005l-.005-.075zm0 0-.004-.075h-.001l.005.075zm.28.047-.03.069.03-.07zm.225.1-.03.067.03-.068zm1.261.386.011.074-.01-.074zm-.232-.418-.011-.074.011.074zm-1.127-.304.03-.07-.03.07zm-.023-.01.03-.069-.03.07zm-.391-.065-.002-.075.002.075zm-.135.003v.075-.075zm-.146.002v.075-.15.075zm-.12 0 .002-.075-.002.074zm-.09.003v.075h.003l-.004-.075zm0 0v-.075h-.005l.004.075zm-.517-.167.057-.049-.057.049zm.623-1.748-.025-.07.025.07zm-.084.169.071-.024-.07.024zm.251-.087.072-.024-.072.024zm.416.347-.024.071.024-.07zm.086.032-.03.069.03-.07zm.248.098-.028.07.027-.07zm.125.048.028-.07h-.002l-.026.07zm0 0-.028.07h.002l.026-.07zm.339.207.053-.053-.053.053zm.017.017.053-.053-.053.053zm.931.705.018-.073-.018.073zm.214.215-.073-.018.073.018zm-.155.259-.017.073.017-.073zm-1.025-.831-.055.05.001.002.054-.052zm0 0 .056-.051-.002-.001-.054.052zm-.17-.177.052-.053-.053.053zm-.243-.148.024-.07-.024.07zm0 0-.025.071h.001l.024-.07zm-.134-.049.027-.07-.027.07zm-.135-.052-.027.07.054-.14-.027.07zm-.118-.048-.03.069.03-.07zm-.066-.027-.028.07.028-.07zm.798-1.869-.075-.005.075.005zm.143-.122-.005.075.005-.075zm.193.818-.053.053.053-.053zm.05.05.053-.052-.053.053zm.09.09-.053.054.105-.107-.053.054zm.103.102-.053.053.053-.053zm.104.097-.05.056.05-.056zm.166.231-.07.028.07-.028zm.088.23-.07.026.07-.027zm.619 1.165-.045.06.045-.06zm.243-.178.06.045-.06-.045zm-.112-.281-.045.06.045-.06zm-.582-1.013-.07.028.07-.028zm-.01-.023.07-.028-.07.028zm-.23-.323-.051.055.051-.055zm-.097-.093-.053.053.053-.053zm-.105-.102-.052.054.105-.108-.053.054zm-.084-.085-.054.053.054-.053zm-.067-.062.05-.056-.05.056zm-.247-.483-.075-.006.075.006zm1.576-.707a.06.06 0 0 1 .079-.026l.065-.135a.21.21 0 0 0-.278.095l.134.066zm.053.709c-.09-.216-.183-.446-.053-.709l-.134-.066c-.165.33-.039.622.049.833l.138-.058zm0 0-.138.057.139-.057zm.028.066a4.703 4.703 0 0 0-.028-.066l-.138.058.027.064.139-.056zm.049.115a4.183 4.183 0 0 1-.05-.115l-.138.056c.015.038.03.075.05.12l.138-.06zm.058.133c-.006-.014-.02-.048-.034-.077l-.017-.04-.005-.011-.002-.004s-.1-.04-.138.06l.138-.06c-.039.098-.137.06-.137.06v.001l.001.003.006.012.017.04.033.076.138-.06zm.059.127a2.522 2.522 0 0 1-.059-.127l-.138.06c.025.056.045.098.062.132l.135-.065zm.074.309a.642.642 0 0 0-.018-.174c-.013-.048-.034-.089-.056-.135l-.135.065c.024.05.037.078.046.11a.51.51 0 0 1 .013.134h.15zm-.004.247c.002-.091.004-.175.004-.247h-.15c0 .07-.002.152-.004.244l.15.003zm0 0-.15-.004.15.004zm.126 1.271a.724.724 0 0 1-.08-.228 2.397 2.397 0 0 1-.04-.325 8.73 8.73 0 0 1-.006-.718l-.15-.003c-.004.218-.01.485.006.73.008.123.021.241.043.347a.872.872 0 0 0 .1.276l.127-.079zm.19-.098a.875.875 0 0 1-.142.067.239.239 0 0 1-.062.015c-.016.001.002-.004.014.016l-.128.079c.032.051.088.057.12.055a.378.378 0 0 0 .106-.023 1.16 1.16 0 0 0 .17-.08l-.078-.13zm-.024-.2a.44.44 0 0 1 .026.125c.002.027 0 .05-.004.067-.005.02-.009.014.002.008l.077.128a.157.157 0 0 0 .067-.101.403.403 0 0 0 .008-.109.608.608 0 0 0-.014-.106.318.318 0 0 0-.034-.09l-.128.078zm-.171-1.196c0 .183 0 .41.02.626.02.212.061.425.15.57l.129-.079c-.07-.113-.11-.296-.13-.505-.02-.207-.02-.428-.02-.612h-.15zm0-.024v.024h.15V8.68h-.15zm-.086-.355c.032.071.052.116.066.165a.7.7 0 0 1 .02.19h.15a.848.848 0 0 0-.025-.23c-.018-.063-.044-.119-.075-.188l-.136.063zm-.056-.124c.02.048.04.089.056.124l.136-.063-.054-.12-.138.059zm.079-.194c-.033.096-.134.067-.137.061l.001.004.005.012.018.039.034.078.138-.06-.035-.079-.017-.04-.006-.011-.001-.003v-.001l-.001-.001c-.003-.006-.105-.035-.137.06v.001l.137-.06zm-.185-.052c.014.034.028.07.047.112l.137-.06a3.84 3.84 0 0 1-.045-.108l-.14.056zm-.037-.078c.015.03.028.056.037.078l.139-.056c-.012-.029-.027-.059-.041-.088l-.135.066zm-.048-.607c-.127.256-.018.471.048.607l.135-.066c-.069-.14-.14-.29-.048-.474l-.135-.067zm-.026-.075c.029.014.04.048.026.075l.135.067a.206.206 0 0 0-.096-.277l-.065.135zm1.848.054a.06.06 0 0 1 .082.007l.113-.099a.21.21 0 0 0-.293-.022l.098.114zm-.228.673c0-.233.005-.482.228-.673l-.098-.114c-.28.24-.28.559-.28.787h.15zm0 0h-.15.15zm0 0h-.15.15zm0 0h-.15.15zm0 0h-.15.15zm0 0h-.15.15zm0 0h-.15.15zm0 0h-.15.15zm0 0h-.15.15zm0 0h-.15.15zm0 0h-.15.15zm0 0h-.15.15zm0 0h-.15.15zm0 0h-.15.15zm0 0h-.15.15zm-.001.072v-.071h-.15v.069l.15.002zm0 .125v-.125l-.15-.002v.13l.15-.003zm0 0-.15.002.15-.002zm0 0-.15.002.15-.001zm.002.146-.002-.145-.15.002.002.143h.15zm.004.139a2.731 2.731 0 0 1-.004-.14l-.15.001c0 .062.002.109.005.147l.15-.008zm-.052.313a.645.645 0 0 0 .05-.167c.008-.05.005-.094.002-.146l-.15.008a.63.63 0 0 1 0 .118.497.497 0 0 1-.04.129l.138.058zm-.1.226c.037-.083.072-.16.1-.226l-.138-.058c-.027.064-.061.14-.099.223l.137.061zm0 0-.137-.061.137.061zm-.381 1.22a.727.727 0 0 1 .015-.241c.02-.097.051-.204.09-.316.08-.224.186-.462.276-.663l-.137-.061c-.09.2-.199.443-.28.674-.04.116-.075.23-.096.336a.869.869 0 0 0-.016.293l.148-.023zm.213-.017a.88.88 0 0 1-.157.007.24.24 0 0 1-.063-.01c-.015-.006.003-.004.007.02l-.148.022c.009.06.058.087.088.098a.38.38 0 0 0 .107.02c.07.004.148-.003.187-.008l-.02-.149zm.056-.193a.175.175 0 0 1-.004.049.442.442 0 0 1-.02.076.259.259 0 0 1-.03.06c-.012.016-.014.01-.002.008l.021.149a.156.156 0 0 0 .101-.068.403.403 0 0 0 .05-.096.591.591 0 0 0 .028-.104.314.314 0 0 0 .004-.096l-.148.022zm.31-1.168c-.072.169-.16.378-.226.584-.065.203-.11.415-.084.584l.148-.022c-.02-.133.015-.316.079-.516.063-.198.149-.402.22-.571l-.137-.059zm0 .002.138.056-.139-.056zm0-.001.138.057-.139-.057zm.01-.023-.01.022.138.059.01-.023-.139-.058zm.059-.36a1.08 1.08 0 0 1-.004.177.701.701 0 0 1-.056.183l.138.058a.846.846 0 0 0 .067-.22c.009-.065.007-.127.005-.203l-.15.005zm0-.003h.15-.15zm0 0h.15-.15zm-.003-.134c0 .053.002.098.003.137l.15-.005a5.584 5.584 0 0 1-.003-.132h-.15zm.148-.147c-.068.075-.15.009-.15.003V8.12v.062l.002.085h.15l-.001-.087v-.056l-.001-.003v-.002c0-.007-.082-.073-.15.002l.15-.001zm-.15-.12v.122l.15-.002V8h-.15zm-.003-.086.003.086.15.002-.003-.096-.15.008zm.193-.577c-.217.186-.201.426-.193.577l.15-.008c-.009-.155-.015-.322.14-.455l-.097-.114zm.005-.08a.056.056 0 0 1-.005.08l.098.114a.206.206 0 0 0 .02-.293l-.113.1zm1.878.728a.21.21 0 0 0-.263-.13l.048.142a.06.06 0 0 1 .074.037l.141-.05zm-.128.263a.206.206 0 0 0 .128-.263l-.141.049a.056.056 0 0 1-.035.072l.048.142zm-.3.37c.05-.148.106-.305.3-.37l-.048-.142c-.27.09-.346.32-.395.463l.142.048zm-.034.09c.012-.028.023-.06.033-.09l-.142-.05a.668.668 0 0 1-.03.082l.139.058zm-.044.109.044-.109-.138-.058-.046.112.14.055zm-.053.137.031-.08.016-.04.004-.013.002-.003v-.002c.002-.006-.049-.098-.14-.054l.14.055c-.091.045-.142-.047-.14-.053v-.001l-.002.004-.004.012a25.42 25.42 0 0 1-.047.12l.14.055zm-.048.124a5.68 5.68 0 0 1 .048-.124l-.14-.056c-.02.05-.035.091-.048.127l.14.053zm0 0-.14-.052.14.051zm0 0-.14-.052.14.051zm0 0-.14-.053.14.054zm.001-.002-.142-.048.142.048zm0 0-.142-.049.142.05zm0 .002-.141-.053.14.053zm0-.001-.142-.05.142.05zm0 0-.141-.051.14.052zm-.225.366a.847.847 0 0 0 .144-.18c.033-.056.054-.114.08-.185l-.14-.052c-.027.073-.045.12-.07.163a.7.7 0 0 1-.12.148l.106.106zm-.018.018.018-.018-.106-.106-.018.018.107.106zm-.684.895c.03-.13.132-.287.266-.449.132-.16.288-.316.418-.446l-.106-.106c-.129.129-.29.29-.428.456-.136.165-.257.344-.296.51l.146.035zm-.306.27a.157.157 0 0 0 .118-.026.399.399 0 0 0 .083-.07.59.59 0 0 0 .065-.086.314.314 0 0 0 .04-.088l-.146-.034a.176.176 0 0 1-.022.043.447.447 0 0 1-.048.063.256.256 0 0 1-.05.045c-.017.01-.016.004-.004.007l-.036.145zm-.314-.246c-.014.059.022.103.046.124.026.024.06.044.091.059.064.03.138.053.177.062l.036-.145a.874.874 0 0 1-.148-.053.237.237 0 0 1-.055-.033c-.012-.011.004-.002-.001.02l-.146-.034zm.852-1.061a8.74 8.74 0 0 0-.512.52 2.52 2.52 0 0 0-.215.276.871.871 0 0 0-.125.265l.146.035a.726.726 0 0 1 .104-.218c.054-.082.124-.17.202-.259.157-.178.345-.359.504-.51l-.104-.11zm.175-.17c-.05.05-.109.107-.175.17l.104.108c.066-.063.126-.121.177-.172l-.106-.106zm.13-.214a.637.637 0 0 1-.044.11.5.5 0 0 1-.086.104l.106.106a.643.643 0 0 0 .11-.136.673.673 0 0 0 .056-.135L18 8.934zm.05-.137a3.054 3.054 0 0 0-.05.137l.142.05c.013-.037.027-.078.048-.132l-.14-.055zm.193-.08c-.097.042-.14-.054-.14-.054l-.002.004c0 .003-.003.007-.005.012l-.015.04-.03.078.14.055a9.122 9.122 0 0 0 .045-.118l.005-.013.002-.003v-.001s-.043-.097-.14-.055l.14.055zm-.091-.175a4.58 4.58 0 0 0-.049.12l.14.055c.017-.045.032-.08.047-.116l-.138-.059zm.026-.064-.026.064.138.059.027-.067-.139-.056zm0 0 .14.057-.14-.058zm0-.001.14.058-.14-.058zm0 .003.14.052-.14-.052zm.555-.626c-.35.117-.468.413-.555.624l.14.056c.088-.216.185-.445.463-.538l-.048-.142zm1.39 1.511a.06.06 0 0 1 .053.064l.15.01a.21.21 0 0 0-.192-.223l-.011.15zm-.637.315c.166-.164.344-.337.637-.315l.011-.15c-.368-.028-.592.198-.754.359l.106.106zm0 0-.106-.106.106.106zm0 0-.106-.106.106.106zm0 0-.106-.106.105.107zm-.052.05.051-.05-.105-.106a5.775 5.775 0 0 1-.05.049l.104.108zm-.088.089c.034-.035.06-.062.088-.088l-.104-.108a4.233 4.233 0 0 0-.091.091l.107.105zm-.101.104.059-.06.03-.031.009-.01.002-.002v-.001h.001s-.002-.106-.107-.105l.107.105c-.106.001-.108-.105-.108-.105v.001l-.003.003-.01.01-.029.03-.058.06.107.105zm-.096.102c.025-.028.055-.061.096-.102l-.107-.106a3.164 3.164 0 0 0-.1.107l.111.1zm-.258.184a.64.64 0 0 0 .154-.082c.04-.03.07-.064.104-.102l-.111-.1a.632.632 0 0 1-.084.082.502.502 0 0 1-.12.063l.057.14zm-.231.09c.085-.033.164-.063.23-.09l-.055-.139-.228.088.053.14zm-1.131.592a.724.724 0 0 1 .18-.16c.082-.054.18-.107.288-.159.214-.103.457-.195.663-.274l-.053-.14a8.994 8.994 0 0 0-.675.279c-.111.053-.216.11-.306.17a.872.872 0 0 0-.218.195l.12.089zm.162.14a.88.88 0 0 1-.116-.107.236.236 0 0 1-.037-.052c-.007-.015.005 0-.01.019l-.12-.089c-.036.049-.02.103-.007.132a.38.38 0 0 0 .062.09c.047.053.106.102.138.126l.09-.12zm.176-.098a.18.18 0 0 1-.037.032.444.444 0 0 1-.069.04.255.255 0 0 1-.064.02c-.02.003-.016-.002-.006.005l-.09.12c.039.03.087.029.119.024a.403.403 0 0 0 .103-.033.598.598 0 0 0 .093-.053.316.316 0 0 0 .072-.066l-.121-.089zm1.045-.607c-.17.069-.381.154-.573.254-.19.098-.371.216-.472.353l.12.09c.08-.109.234-.213.421-.31.184-.096.39-.178.56-.247l-.056-.14zm.022-.009-.022.01.056.139.023-.01-.057-.139zm.297-.212a1.07 1.07 0 0 1-.128.123.7.7 0 0 1-.169.09l.057.138a.85.85 0 0 0 .203-.109c.052-.04.094-.085.146-.14l-.11-.102zm.094-.099a3.47 3.47 0 0 0-.094.099l.109.103c.027-.028.056-.06.092-.096l-.107-.106zm.21 0-.001.001c-.1.005-.112-.1-.108-.104l-.002.002-.01.01-.03.03-.059.061.107.106a15.12 15.12 0 0 0 .09-.093l.01-.01.002-.002.001-.001c.005-.005-.007-.11-.107-.105l.107.106zm-.022-.19a4.085 4.085 0 0 0-.086.086l.108.105a3.98 3.98 0 0 1 .082-.083l-.104-.108zm.059-.063c-.023.025-.041.046-.059.063l.104.108a1.34 1.34 0 0 0 .067-.071l-.112-.1zm.001-.001.11.102-.11-.102zm-.006.007.122.088-.122-.088zm.55-.278c-.286-.022-.444.16-.545.272l.112.1c.103-.115.216-.238.42-.222l.012-.15zm.06-.052a.056.056 0 0 1-.06.052l-.012.15a.206.206 0 0 0 .22-.192l-.149-.01zm.808 1.83a.21.21 0 0 0-.094-.277l-.067.134a.06.06 0 0 1 .026.079l.135.065zm-.277.096a.206.206 0 0 0 .277-.095l-.135-.066a.056.056 0 0 1-.075.027l-.067.134zm-.474.049c.14-.069.29-.14.474-.049l.067-.134c-.256-.127-.471-.019-.607.048l.066.135zm0 0-.066-.135.067.134zm-.088.04a.991.991 0 0 0 .088-.04l-.066-.135a.973.973 0 0 1-.078.036l.056.14zm-.108.046a3.77 3.77 0 0 1 .108-.046l-.056-.139-.112.048.06.137zm-.134.06.08-.035.038-.018.012-.005a.035.035 0 0 0 .004-.002h.001c.007-.004.035-.105-.06-.138l.06.138h-.002c-.094-.032-.067-.133-.06-.137l-.003.002-.012.005-.04.017-.077.035.059.137zm-.121.054.121-.055-.06-.137c-.048.02-.089.04-.124.055l.063.137zm.002-.002-.067-.134.067.134zm-.42.101a.848.848 0 0 0 .23-.025c.063-.017.12-.043.188-.074l-.063-.137a1.081 1.081 0 0 1-.165.067.701.701 0 0 1-.19.02v.15zm-.024 0h.025v-.15h-.025v.15zm-1.117.15c.114-.071.296-.11.506-.13.206-.02.427-.02.611-.02v-.15c-.183 0-.41 0-.626.02-.212.02-.425.062-.57.152l.079.127zm-.407-.027c.025.042.07.059.102.066.034.009.072.01.108.009a.59.59 0 0 0 .106-.015.312.312 0 0 0 .09-.034l-.078-.127a.178.178 0 0 1-.046.015.45.45 0 0 1-.079.011.26.26 0 0 1-.067-.004c-.02-.005-.014-.009-.008.002l-.128.077zm-.049-.395c-.05.032-.056.088-.055.12a.378.378 0 0 0 .023.106c.024.067.06.135.081.17l.129-.078a.882.882 0 0 1-.068-.142.24.24 0 0 1-.015-.062c0-.017.005.001-.016.014l-.079-.128zm1.354-.148a8.804 8.804 0 0 0-.731.006 2.545 2.545 0 0 0-.347.043.87.87 0 0 0-.276.1l.08.127a.729.729 0 0 1 .227-.08c.096-.02.207-.033.326-.04.237-.016.498-.01.717-.006l.003-.15zm0 0-.004.15.004-.15zm.244.004c-.07 0-.153-.002-.244-.004l-.004.15c.091.002.176.004.248.004v-.15zm.243-.06a.618.618 0 0 1-.109.046.497.497 0 0 1-.134.014v.15a.642.642 0 0 0 .174-.019c.047-.013.088-.033.134-.055l-.065-.135zm.133-.06c-.057.024-.099.044-.133.06l.065.136.127-.06-.06-.137zm.192.078c-.099-.038-.06-.137-.06-.137h-.002l-.003.002-.012.006-.039.017-.076.033.059.138.078-.034.038-.017.013-.006.003-.001h.001s.038-.1-.06-.138l.06.137zm.059-.187-.12.05.06.137.116-.048-.056-.14zm.064-.027-.064.027.056.139.067-.028-.058-.138zm.002 0 .055.139-.055-.14zm.832-.05c-.33-.164-.623-.038-.833.05l.058.138c.215-.09.445-.184.708-.053l.067-.134zm-.096 2.044a.06.06 0 0 1-.006.082l.099.113a.21.21 0 0 0 .021-.293l-.114.098zm-.672-.228c.233 0 .482.005.672.228l.114-.098c-.24-.28-.558-.28-.786-.28v.15zm0 0v-.15.15zm0 0v-.15.15zm0 0v-.15.15zm0 0v-.15.15zm-.072 0h.072v-.15h-.07l-.002.15zm-.125 0c.048-.001.087-.002.125 0l.002-.15c-.04-.002-.08-.001-.13 0l.003.15zm0 0-.002-.15.002.15zm-.001 0v-.15.15zm-.145.001.146-.002-.003-.15-.143.002v.15zm-.139.005c.038-.002.082-.005.14-.005l-.001-.15c-.062 0-.109.003-.147.005l.008.15zm-.313-.053a.645.645 0 0 0 .167.051c.049.007.094.004.146.002l-.008-.15a.62.62 0 0 1-.118 0 .496.496 0 0 1-.129-.04l-.058.137zm-.226-.1c.083.037.16.072.226.1l.058-.138a8.427 8.427 0 0 1-.223-.099l-.061.137zm-.001 0 .063-.136-.063.136zm-1.219-.38a.724.724 0 0 1 .241.014c.097.02.204.051.316.09.224.08.462.186.663.276l.061-.137c-.2-.09-.443-.199-.674-.28a2.52 2.52 0 0 0-.337-.096.87.87 0 0 0-.292-.016l.022.148zm.017.213a.878.878 0 0 1-.007-.158.234.234 0 0 1 .01-.063c.006-.015.004.004-.02.007l-.022-.148c-.06.009-.087.058-.098.089a.383.383 0 0 0-.02.106 1.13 1.13 0 0 0 .008.188l.149-.021zm.193.055a.18.18 0 0 1-.049-.003.447.447 0 0 1-.076-.021.257.257 0 0 1-.06-.03c-.016-.012-.01-.014-.008-.002l-.149.022a.157.157 0 0 0 .068.1.403.403 0 0 0 .096.05c.034.013.07.023.104.028a.314.314 0 0 0 .096.004l-.022-.148zm1.168.31a6.891 6.891 0 0 0-.584-.226c-.204-.064-.415-.11-.584-.084l.022.148c.133-.02.316.015.516.08.198.062.402.148.571.22l.059-.138zm.022.01-.022-.01-.059.138.023.01.058-.139zm.36.059a1.069 1.069 0 0 1-.177-.004.697.697 0 0 1-.183-.056l-.058.139a.846.846 0 0 0 .22.066c.065.009.127.007.203.005l-.005-.15zm.003 0v.15-.15zm0 0v.15-.15zm0 0v.15-.15zm.134-.003c-.053 0-.098.002-.137.003l.005.15c.038-.001.081-.003.132-.003v-.15zm.147.148c-.075-.068-.009-.15-.003-.15h.001-.019a8.193 8.193 0 0 1-.128.002l.001.15a11.205 11.205 0 0 0 .13-.002h.019c.006 0 .073-.082-.002-.15l.001.15zm.12-.15h-.122l.002.15h.118l.002-.15zm.086-.003a1.25 1.25 0 0 1-.086.003l-.002.15.096-.003-.008-.15zm.577.193c-.186-.217-.426-.201-.577-.193l.008.15c.155-.008.322-.015.455.14l.114-.097zm.08.005a.056.056 0 0 1-.08-.005l-.114.098a.206.206 0 0 0 .293.02l-.1-.113zm-.735 1.863a.21.21 0 0 0 .13-.264l-.142.048a.06.06 0 0 1-.037.074l.05.142zm-.263-.129c.037.11.155.166.263.129l-.05-.142a.056.056 0 0 1-.071-.035l-.142.048zm-.37-.3c.147.05.305.106.37.3l.142-.048c-.091-.27-.32-.346-.463-.395l-.048.142zm-.09-.034c.028.012.06.023.09.033l.05-.142a.668.668 0 0 1-.082-.03l-.058.139zm-.109-.044.109.044.058-.138a3.972 3.972 0 0 0-.113-.046l-.054.14zm-.137-.053.08.031.04.016.013.004.003.002h.002c.006.002.098-.049.054-.14l-.055.14c-.045-.09.047-.142.053-.14h.001c-.001 0-.003 0-.004-.002a2.869 2.869 0 0 1-.012-.004l-.04-.016-.08-.03-.055.139zm-.124-.047c.036.013.077.028.124.047l.056-.14a5.503 5.503 0 0 0-.128-.048l-.052.14zm0 0 .052-.141-.052.14zm-.366-.225c.068.068.122.11.18.144.057.033.115.054.186.08l.052-.14a1.083 1.083 0 0 1-.163-.07.702.702 0 0 1-.148-.12l-.107.106zm-.017-.017.017.017.107-.106-.018-.017-.106.106zm-.895-.685c.13.03.287.132.449.266.16.132.316.289.446.419l.106-.106c-.129-.13-.29-.29-.456-.429-.165-.135-.344-.257-.51-.296l-.035.146zm-.27-.306a.157.157 0 0 0 .026.118c.018.03.044.059.07.083a.59.59 0 0 0 .086.065.313.313 0 0 0 .088.04l.034-.146a.184.184 0 0 1-.043-.021.441.441 0 0 1-.063-.049.256.256 0 0 1-.045-.05c-.01-.017-.004-.016-.007-.004l-.145-.036zm.246-.314c-.059-.014-.103.022-.125.046a.379.379 0 0 0-.058.091c-.03.064-.053.138-.062.177l.145.036a.884.884 0 0 1 .053-.148.238.238 0 0 1 .033-.055c.011-.012.002.005-.02 0l.034-.147zm1.061.852a8.74 8.74 0 0 0-.52-.512 2.535 2.535 0 0 0-.276-.215.868.868 0 0 0-.265-.125l-.035.146c.061.015.135.05.218.104.082.054.17.124.258.202a8.7 8.7 0 0 1 .512.504l.108-.104zm-.001 0-.106.105.106-.106zm.001 0-.108.104.108-.104zm0 0-.108.104.108-.104zm.17.175c-.05-.05-.107-.109-.17-.175l-.108.104c.063.066.121.127.172.178l.106-.107zm.214.13a.626.626 0 0 1-.11-.044.5.5 0 0 1-.104-.086l-.106.107a.646.646 0 0 0 .136.11c.043.024.086.038.135.055l.049-.141zm.137.051a2.23 2.23 0 0 0-.137-.05l-.05.141c.037.013.078.027.132.048l.055-.139zm.08.192c-.042-.097.054-.14.054-.14l-.004-.002-.012-.004a31.03 31.03 0 0 0-.04-.016l-.078-.03-.055.14.079.03.04.016.012.004a.043.043 0 0 1 .004.002s.097-.042.055-.14l-.055.14zm.175-.091a4.266 4.266 0 0 0-.12-.049l-.055.14.116.047.059-.138zm.064.027a6.204 6.204 0 0 1-.064-.027l-.059.138c.022.01.044.018.067.027l.056-.138zm.624.554c-.117-.35-.413-.468-.624-.554l-.056.139c.216.088.445.185.538.463l.142-.048zm-1.524 1.378a.06.06 0 0 1-.063.053l-.01.15a.21.21 0 0 0 .223-.192l-.15-.011zm-.315-.637c.165.166.338.344.315.637l.15.011c.028-.368-.198-.592-.358-.754l-.107.106zm-.05-.052.05.052.107-.106-.05-.05-.107.104zm-.089-.088.089.088.108-.104a4.63 4.63 0 0 0-.092-.091l-.105.107zm-.104-.101c.012.01.038.036.061.059l.03.03a.03.03 0 0 1 .01.009l.003.002v.001s.107-.002.105-.107l-.104.107c-.002-.106.104-.108.104-.108l-.003-.003a.556.556 0 0 0-.01-.01l-.03-.029a14.975 14.975 0 0 1-.06-.058l-.106.107zM18 15.11c.028.025.06.055.101.096l.106-.107a3.164 3.164 0 0 0-.107-.1l-.1.111zm-.003-.002.106-.107-.106.107zm-.182-.256a.643.643 0 0 0 .082.154c.03.04.064.07.103.104l.1-.111a.617.617 0 0 1-.083-.084.497.497 0 0 1-.063-.12l-.139.057zm-.089-.231c.032.085.062.164.09.23l.138-.056a13.038 13.038 0 0 1-.088-.227l-.14.053zm-.593-1.132c.051.038.105.1.16.182.054.081.108.18.16.287.102.214.195.457.273.663l.14-.053c-.078-.205-.172-.454-.279-.675a2.525 2.525 0 0 0-.17-.306.868.868 0 0 0-.195-.218l-.089.12zm-.14.163a.873.873 0 0 1 .107-.116.236.236 0 0 1 .052-.037c.015-.007 0 .005-.019-.01l.09-.12c-.05-.036-.104-.02-.133-.007a.375.375 0 0 0-.09.062 1.028 1.028 0 0 0-.126.138l.12.09zm.098.176a.178.178 0 0 1-.032-.037.446.446 0 0 1-.04-.069.255.255 0 0 1-.02-.064c-.003-.02.002-.016-.005-.006l-.12-.09a.157.157 0 0 0-.023.119.4.4 0 0 0 .033.103.59.59 0 0 0 .053.093.315.315 0 0 0 .065.072l.089-.121zm.607 1.045c-.069-.17-.154-.381-.253-.573-.099-.19-.216-.371-.354-.472l-.089.12c.108.08.213.234.31.421.095.184.178.39.247.56l.139-.056zm.009.022-.01-.022-.138.056.009.022.139-.056zm.213.297a1.069 1.069 0 0 1-.123-.128.703.703 0 0 1-.09-.169l-.139.057c.036.088.069.15.109.203.04.052.085.094.14.146l.103-.11zm.098.094a5.745 5.745 0 0 0-.098-.094l-.103.109c.028.027.06.056.096.092l.105-.107zm0 .21-.001-.001c-.005-.1.1-.112.105-.108l-.003-.002a1.398 1.398 0 0 1-.01-.01l-.03-.03a7.895 7.895 0 0 1-.061-.059l-.105.107.061.06.031.03.01.01.002.002h.001v.001c.006.005.11-.007.105-.107l-.105.107zm.19-.022a4.073 4.073 0 0 0-.085-.086l-.105.107.083.084.108-.105zm.063.059a1.23 1.23 0 0 1-.063-.059l-.107.104c.02.023.046.045.07.067l.1-.112zm-.003-.003-.094.117.094-.117zm.275.547c.022-.285-.159-.443-.272-.544l-.1.112c.116.103.238.216.223.42l.15.012zm.053.06a.056.056 0 0 1-.053-.06l-.15-.011a.206.206 0 0 0 .193.22l.01-.149zm-1.848.803a.21.21 0 0 0 .278-.095l-.134-.066a.06.06 0 0 1-.078.026l-.066.135zm-.095-.277a.206.206 0 0 0 .095.277l.066-.135a.056.056 0 0 1-.027-.076l-.134-.066zm-.049-.474c.069.139.14.29.049.474l.134.066c.127-.256.019-.47-.048-.606l-.135.066zm0 0 .135-.067-.134.067zm0 0 .135-.067-.134.067zm-.04-.088c.011.029.026.059.04.088l.135-.066a1.166 1.166 0 0 1-.036-.078l-.14.056zm-.046-.108.046.108.139-.056a4.119 4.119 0 0 0-.048-.112l-.137.06zm-.06-.135.036.08.017.039.005.012.002.003v.002c.003.006.105.035.138-.06v-.001l-.138.06c.032-.096.134-.067.137-.061l-.002-.004-.005-.012-.017-.039-.035-.078-.137.06zm-.053-.12.054.12.137-.059a5.669 5.669 0 0 0-.055-.124l-.137.062zm-.1-.418c0 .096.007.165.025.23.017.062.043.119.075.187l.136-.062a1.077 1.077 0 0 1-.067-.165.701.701 0 0 1-.02-.19h-.15zm0-.024v.024h.15v-.024h-.15zm-.15-1.118c.071.114.11.297.13.506.02.207.02.428.02.612h.15c0-.183 0-.411-.02-.626-.02-.212-.062-.425-.152-.57l-.127.078zm.027-.406a.156.156 0 0 0-.066.101.402.402 0 0 0-.009.109.606.606 0 0 0 .015.106.318.318 0 0 0 .034.09l.127-.079a.178.178 0 0 1-.015-.045.438.438 0 0 1-.01-.08.252.252 0 0 1 .004-.066c.004-.02.008-.014-.003-.008l-.077-.128zm.395-.049c-.032-.051-.088-.057-.12-.056a.378.378 0 0 0-.106.024 1.16 1.16 0 0 0-.17.08l.078.13a.875.875 0 0 1 .142-.069.239.239 0 0 1 .062-.015c.017 0-.001.005-.014-.015l.128-.079zm.148 1.353c.005-.219.01-.486-.006-.73a2.529 2.529 0 0 0-.043-.347.872.872 0 0 0-.099-.276l-.128.079c.034.053.06.13.08.228.02.096.033.207.04.325.016.237.01.498.006.718l.15.003zm0 0-.15-.004.15.005zm-.004.244c0-.07.002-.152.004-.244l-.15-.003c-.002.09-.004.175-.004.247h.15zm.06.243a.637.637 0 0 1-.046-.108.498.498 0 0 1-.014-.135h-.15c0 .073.005.125.019.174.013.048.033.088.055.135l.135-.066zm.06.133c-.023-.056-.044-.098-.06-.133l-.136.066.06.127.137-.06zm-.078.193c.038-.1.137-.061.137-.061v-.001l-.002-.004-.006-.012-.017-.038a7.933 7.933 0 0 1-.033-.077l-.138.06.034.077.017.039.006.012.001.003v.001s.1.039.138-.06l-.137.06zm.187.058a4.164 4.164 0 0 0-.05-.119l-.137.06.048.116.14-.057zm.027.065a4.506 4.506 0 0 1-.027-.065l-.139.057c.01.021.018.044.028.066l.138-.058zm0 .001-.139.056.14-.056zm.05.832c.164-.33.038-.623-.05-.833l-.138.058c.09.215.184.446.053.709l.134.066zm-2.061-.095a.06.06 0 0 1-.083-.006l-.113.098a.21.21 0 0 0 .293.022l-.097-.114zm.228-.672c-.001.233-.005.482-.228.672l.097.114c.281-.24.28-.558.28-.786h-.15zm0 0h.15-.15zm0 0h.15-.15zm0 0h.15-.15zm0 0h.15-.15zm0 0h.15-.15zm0-.072v.071l.15.001v-.07l-.15-.002zm0-.126v.126l.15.002v-.13l-.15.002zm0 0 .15-.001-.15.002zm-.002-.145.002.146.15-.003-.002-.144-.15.001zm-.004-.14c.002.039.004.083.005.14h.15c0-.062-.003-.109-.005-.147l-.15.008zm0 .002.15-.01-.15.01zm.052-.314a.645.645 0 0 0-.05.167.71.71 0 0 0-.002.146l.15-.008a.63.63 0 0 1 0-.118.497.497 0 0 1 .04-.129l-.138-.058zm.1-.226c-.037.082-.072.16-.1.226l.139.058c.027-.064.06-.14.098-.223l-.137-.062zm0 .002.138.056-.139-.056zm.381-1.222a.728.728 0 0 1-.015.241 2.42 2.42 0 0 1-.09.316 8.718 8.718 0 0 1-.276.662l.137.062c.09-.2.2-.443.28-.675a2.43 2.43 0 0 0 .096-.336.869.869 0 0 0 .017-.292l-.149.022zm-.213.017a.88.88 0 0 1 .157-.007.24.24 0 0 1 .063.01c.015.006-.003.004-.007-.02l.149-.022c-.01-.06-.059-.087-.09-.098a.379.379 0 0 0-.106-.02 1.02 1.02 0 0 0-.187.008l.021.149zm-.056.193a.175.175 0 0 1 .004-.049.439.439 0 0 1 .051-.136c.012-.017.013-.01.001-.008l-.021-.149a.157.157 0 0 0-.1.068.403.403 0 0 0-.05.096.593.593 0 0 0-.029.104.314.314 0 0 0-.004.096l.148-.023zm-.31 1.167c.072-.168.161-.378.226-.583.065-.204.11-.415.084-.585l-.148.023c.02.133-.015.316-.079.516a6.599 6.599 0 0 1-.22.57l.138.06zm-.009.023.01-.023-.139-.058-.01.022.139.06zm-.06.36a1.081 1.081 0 0 1 .004-.178.701.701 0 0 1 .056-.182l-.138-.059a.846.846 0 0 0-.066.221c-.01.065-.007.127-.005.203l.15-.005zm.003.136-.002-.136-.15.005.002.132h.15zm-.148.148c.068-.075.15-.009.15-.003v-.059l-.002-.086-.15.001.001.087.001.043v.018c0 .006.082.073.15-.002l-.15.001zm.15.12v-.122l-.15.002v.117l.15.003zm.003.086a1.25 1.25 0 0 1-.003-.086l-.15-.003.003.097.15-.008zm-.193.577c.217-.186.201-.426.193-.577l-.15.008c.009.155.016.322-.14.455l.097.114zm-.005.08a.056.056 0 0 1 .005-.08l-.097-.114a.206.206 0 0 0-.02.292l.112-.098zm-1.878-.728a.21.21 0 0 0 .263.13l-.047-.142a.06.06 0 0 1-.074-.037l-.142.049zm.128-.263a.206.206 0 0 0-.128.263l.142-.05a.056.056 0 0 1 .034-.071l-.048-.142zm.301-.37c-.05.147-.106.305-.3.37l.047.142c.271-.091.346-.32.395-.463l-.142-.048zm.033-.09c-.012.028-.022.06-.033.09l.142.049c.011-.032.02-.059.03-.08l-.139-.06zm.044-.11a2.09 2.09 0 0 1-.044.11l.138.058c.015-.034.03-.069.046-.113l-.14-.054zm.054-.136-.032.08-.015.04-.005.013-.001.003v.001l-.001.001c-.002.006.05.098.14.054l-.14-.055v-.001c.091-.044.143.048.14.054v.001l.002-.004.005-.012.015-.04.031-.08-.14-.055zm.047-.124a5.43 5.43 0 0 1-.047.124l.14.055.048-.127-.141-.052zm.001-.003.139.058-.139-.058zm.223-.363a.842.842 0 0 0-.144.18 1.238 1.238 0 0 0-.08.186l.14.052c.028-.073.045-.12.07-.163a.7.7 0 0 1 .12-.148l-.106-.107zm.018-.017-.018.017.107.107.017-.018-.106-.106zm.006-.005.094.117-.094-.117zm.679-.89c-.031.13-.133.287-.267.449-.132.16-.288.316-.418.446l.106.106c.13-.13.29-.29.428-.457.136-.164.257-.343.297-.51l-.146-.034zm.306-.27a.157.157 0 0 0-.119.025.402.402 0 0 0-.083.071.59.59 0 0 0-.064.086.315.315 0 0 0-.04.088l.146.034a.177.177 0 0 1 .021-.043.447.447 0 0 1 .048-.063.26.26 0 0 1 .05-.045c.018-.01.016-.004.005-.007l.036-.145zm.313.245c.014-.058-.021-.102-.045-.124a.374.374 0 0 0-.092-.058 1.018 1.018 0 0 0-.176-.062l-.037.145a.874.874 0 0 1 .149.052.241.241 0 0 1 .054.034c.012.01-.004.002.001-.021l.146.034zm-.852 1.062c.158-.152.35-.336.513-.52a2.52 2.52 0 0 0 .214-.276.871.871 0 0 0 .125-.265l-.146-.035a.725.725 0 0 1-.104.218c-.054.082-.123.17-.202.258-.157.179-.345.36-.504.512l.104.108zm-.002.002-.1-.112.1.112zm.002-.002-.103-.109.103.11zm0 0-.103-.109.103.11zm0 0-.104-.108.104.108zm0 0-.104-.108.104.108zm-.175.17c.05-.05.11-.107.175-.17l-.104-.108c-.065.063-.126.121-.177.172l.106.106zm-.13.214a.637.637 0 0 1 .044-.11.498.498 0 0 1 .086-.104l-.106-.106a.643.643 0 0 0-.11.136.814.814 0 0 0-.056.135l.142.049zm0 .002-.141-.053.14.053zm-.05.135c.022-.057.037-.101.05-.137l-.142-.05a2.887 2.887 0 0 1-.048.132l.14.055zm-.192.08c.097-.042.14.054.14.054l.001-.004.005-.013.015-.04.03-.077-.139-.055a8.538 8.538 0 0 0-.046.118l-.005.013-.001.003v.001s.042.097.139.055l-.14-.056zm.09.175.05-.12-.14-.055-.048.116.139.059zm-.026.064.027-.065-.139-.058a6.44 6.44 0 0 0-.027.066l.139.057zm-.555.624c.35-.117.468-.413.555-.624l-.14-.057c-.088.216-.184.446-.462.539l.047.142zm-1.375-1.49a.06.06 0 0 1-.055-.062l-.15-.008a.21.21 0 0 0 .196.22l.009-.15zm.631-.326c-.163.168-.338.344-.631.326l-.009.15c.369.022.589-.208.748-.37l-.108-.106zm.05-.051a6.261 6.261 0 0 0-.05.051l.108.105.049-.05-.106-.106zm.088-.09-.087.09.106.106a4.17 4.17 0 0 0 .09-.093l-.11-.103zm.1-.106-.059.062-.029.031-.009.01-.002.002-.001.001s.003.106.108.104l-.108-.104c.106-.003.11.103.11.103h-.001v-.001c.002 0 .002-.002.003-.003l.01-.01a4.723 4.723 0 0 0 .086-.091l-.109-.104zm.093-.103a2.894 2.894 0 0 1-.094.103l.109.104c.042-.044.073-.08.098-.108l-.113-.099zm.255-.189a.646.646 0 0 0-.153.085c-.039.03-.068.065-.102.104l.113.098a.639.639 0 0 1 .082-.084.504.504 0 0 1 .119-.065l-.059-.138zm.229-.093a12.12 12.12 0 0 0-.229.093l.059.138.226-.092-.056-.14zm0 0 .056.14-.056-.14zm.001 0 .054.14-.054-.14zm1.12-.613a.725.725 0 0 1-.178.163 2.38 2.38 0 0 1-.284.164 8.72 8.72 0 0 1-.659.286l.056.139c.203-.081.45-.18.67-.29.11-.056.214-.114.302-.176a.867.867 0 0 0 .215-.199l-.122-.087zm-.165-.136a.88.88 0 0 1 .118.104c.02.022.033.04.038.051.007.015-.005 0 .01-.019l.121.087c.035-.049.019-.103.005-.132a.38.38 0 0 0-.063-.088 1.028 1.028 0 0 0-.14-.124l-.089.12zm-.174.1a.172.172 0 0 1 .036-.032.442.442 0 0 1 .069-.04.257.257 0 0 1 .063-.023c.02-.003.016.002.006-.005l.088-.121a.157.157 0 0 0-.119-.022.408.408 0 0 0-.103.035.6.6 0 0 0-.092.055.312.312 0 0 0-.07.066l.122.087zm-1.034.625a6.59 6.59 0 0 0 .568-.263c.188-.101.367-.222.466-.362L14 12.962c-.078.11-.23.217-.415.317a6.627 6.627 0 0 1-.556.257l.06.138zm-.022.01.022-.01-.059-.138-.022.01.059.138zm-.293.218a1.07 1.07 0 0 1 .126-.126.7.7 0 0 1 .167-.092l-.06-.138a.845.845 0 0 0-.2.112c-.051.04-.093.087-.144.142l.11.101zm-.093.1.093-.1-.111-.102-.09.098.108.103zm-.21.003h.001v-.001c.1-.007.114.098.11.103l.002-.003.01-.01.028-.03.059-.063-.108-.103-.06.063c-.011.012-.021.023-.03.03l-.008.01a.071.071 0 0 1-.003.003v.001c-.005.006.008.11.108.103h.001l-.11-.103zm.025.19a3.93 3.93 0 0 0 .085-.087l-.11-.103c-.03.033-.056.06-.08.084l.105.106zm-.057.064a1.08 1.08 0 0 1 .057-.064l-.106-.106a1.349 1.349 0 0 0-.065.072l.114.098zm-.54.281c.286.017.441-.167.54-.281l-.114-.098c-.101.117-.212.242-.417.23l-.009.15zm-.059.054a.056.056 0 0 1 .06-.054l.008-.15a.206.206 0 0 0-.218.196l.15.008zm-.822-1.854a.21.21 0 0 0 .095.278l.066-.134a.06.06 0 0 1-.026-.079l-.135-.065zm.277-.095a.206.206 0 0 0-.277.095l.135.065a.056.056 0 0 1 .075-.026l.067-.134zm.474-.049c-.14.069-.29.14-.474.049l-.066.134c.255.127.47.018.606-.048l-.066-.135zm.002 0 .062.136-.062-.137zm.086-.04c-.029.01-.059.026-.088.04l.066.135.078-.037-.056-.139zm.108-.046a3.77 3.77 0 0 1-.108.045l.056.14.112-.048-.06-.137zm.134-.06-.079.035a32.302 32.302 0 0 1-.051.023l-.003.001h-.001l-.001.001c-.006.003-.035.104.06.137h.001l-.06-.137c.096.033.067.134.061.136l.004-.001a.73.73 0 0 0 .012-.005l.039-.018.078-.034-.06-.137zm.121-.054a5.192 5.192 0 0 1-.12.054l.059.138c.048-.02.089-.04.124-.055l-.063-.137zm0 0 .063.137-.063-.137zm0 0 .063.136-.063-.136zm-.002.001.067.134-.067-.134zm.42-.1a.848.848 0 0 0-.23.024c-.063.018-.119.044-.188.075l.063.137a1.07 1.07 0 0 1 .165-.067.696.696 0 0 1 .19-.02v-.15zm.024 0h-.024v.15h.024v-.15zm1.118-.15c-.114.071-.297.11-.506.13-.207.02-.428.02-.612.02v.15c.183 0 .41 0 .626-.02.212-.02.425-.062.57-.152l-.078-.127zm.406.027a.157.157 0 0 0-.101-.067.402.402 0 0 0-.109-.008.59.59 0 0 0-.106.014.312.312 0 0 0-.09.035l.078.127a.178.178 0 0 1 .046-.015.44.44 0 0 1 .079-.011.252.252 0 0 1 .067.004c.02.005.014.009.008-.002l.128-.077zm.049.395c.051-.032.057-.088.055-.12a.378.378 0 0 0-.023-.106 1.026 1.026 0 0 0-.08-.17l-.13.078a.88.88 0 0 1 .069.142.25.25 0 0 1 .015.062c0 .016-.005-.001.015-.014l.079.128zm-1.353.148c.218.004.486.01.73-.006a2.53 2.53 0 0 0 .347-.043.87.87 0 0 0 .276-.1l-.079-.127a.725.725 0 0 1-.228.08 2.29 2.29 0 0 1-.325.04c-.238.016-.498.01-.718.006l-.003.15zm0 0 .003-.15-.004.15zm-.244-.004c.07 0 .152.002.244.004l.003-.15c-.091-.002-.175-.004-.247-.004v.15zm-.243.06a.618.618 0 0 1 .108-.047.497.497 0 0 1 .135-.013v-.15a.642.642 0 0 0-.174.019c-.048.013-.088.033-.135.055l.066.135zm-.133.06c.056-.024.098-.044.133-.06l-.066-.136a2.781 2.781 0 0 1-.127.059l.06.138zm-.192-.079c.098.039.06.138.06.138h.001l.003-.002.013-.006.038-.017.077-.033-.06-.138-.077.034-.04.017-.011.005a.037.037 0 0 1-.004.002s-.04.1.06.138l-.06-.138zm-.06.188c.038-.015.075-.03.12-.05l-.06-.138-.116.05.056.138zm-.064.027.064-.027-.056-.139a6.396 6.396 0 0 0-.066.028l.058.138zm0 0-.058-.139.057.14zm-.833.05c.33.164.622.038.833-.05l-.058-.138c-.216.09-.446.183-.709.053l-.066.134zm.095-2.044a.06.06 0 0 1 .007-.082l-.1-.113a.21.21 0 0 0-.021.293l.114-.098zm.673.228c-.234-.001-.482-.005-.673-.228l-.114.098c.24.28.558.279.786.28v-.15zm0 0v.15-.15zm0 0v.15-.15zm.072 0h-.072l-.001.15h.07l.003-.15zm.125 0h-.125l-.003.15h.13l-.002-.15zm0 0 .002.15-.002-.15zm0 0 .002.15-.002-.15zm.145-.001-.145.002.002.15.144-.002-.001-.15zm.14-.005a2.734 2.734 0 0 1-.14.005v.15c.062 0 .109-.003.147-.005l-.008-.15zm.003 0v.15-.15zm-.005 0 .01.15-.01-.15zm.315.053a.645.645 0 0 0-.168-.051c-.049-.007-.094-.004-.146-.002l.008.15a.628.628 0 0 1 .118 0 .493.493 0 0 1 .129.04l.059-.137zm.226.1a8.953 8.953 0 0 0-.226-.1l-.06.138c.065.027.14.061.224.098l.062-.136zm1.219.38a.728.728 0 0 1-.241-.015 2.399 2.399 0 0 1-.316-.09 8.732 8.732 0 0 1-.662-.275l-.062.136c.2.09.443.2.675.28.116.041.23.075.336.097.105.02.206.03.293.016l-.023-.148zm-.016-.213c.004.034.01.1.007.157a.234.234 0 0 1-.01.063c-.007.016-.005-.003.019-.006l.023.148c.06-.01.086-.059.098-.089a.38.38 0 0 0 .02-.106 1.037 1.037 0 0 0-.009-.188l-.148.021zm-.193-.055a.175.175 0 0 1 .048.003.439.439 0 0 1 .137.051c.016.012.01.014.008.001l.148-.02a.157.157 0 0 0-.067-.101.403.403 0 0 0-.097-.05.593.593 0 0 0-.103-.029.314.314 0 0 0-.097-.004l.023.149zm-1.168-.31c.168.071.378.16.584.226.203.064.415.11.584.084l-.023-.149c-.132.02-.316-.015-.516-.078a6.599 6.599 0 0 1-.57-.221l-.06.138zm-.023-.01.023.01.058-.138-.022-.01-.059.138zm-.36-.059c.078-.002.127-.004.178.003a.701.701 0 0 1 .182.056l.059-.138a.845.845 0 0 0-.22-.066c-.066-.01-.128-.007-.203-.005l.004.15zm-.136.003c.053 0 .097-.002.136-.003l-.004-.15a5.593 5.593 0 0 1-.133.003v.15zm-.148-.148h.001c.075.067.008.15.002.15h.017a8.193 8.193 0 0 1 .128-.002l-.001-.15h-.086l-.043.001h-.019c-.006.001-.073.083.002.15v-.15zm-.12.15h.122l-.002-.15h-.117l-.003.15zm-.086.003a1.25 1.25 0 0 1 .086-.003l.003-.15a.792.792 0 0 0-.097.003l.008.15zm-.004 0v-.15.15zm0 0v-.15.15zm-.573-.193c.186.217.426.2.577.193l-.008-.15c-.155.008-.322.015-.455-.14l-.114.097zm-.08-.005a.056.056 0 0 1 .08.005l.114-.098a.206.206 0 0 0-.292-.02l.098.113zm.735-1.863a.21.21 0 0 0-.13.264l.142-.048a.06.06 0 0 1 .037-.074l-.049-.142zm.264.129a.206.206 0 0 0-.264-.129l.05.142c.03-.01.062.005.071.034l.143-.047zm.368.3c-.146-.05-.303-.106-.369-.3l-.142.047c.091.271.32.347.463.395l.048-.142zm.091.034c-.028-.012-.06-.023-.09-.034l-.049.142c.032.011.059.02.08.03l.06-.138zm.11.044a3.925 3.925 0 0 1-.11-.044l-.058.138.113.046.054-.14zm.136.053a16.666 16.666 0 0 0-.12-.047l-.013-.005a.118.118 0 0 0-.004-.001c-.007-.003-.099.049-.055.14l.055-.14h.001c.044.09-.048.142-.054.14l.003.001.013.005.04.015.079.031.055-.139zm.124.047-.124-.047-.055.14c.049.02.09.035.127.048l.052-.14zm.002.001-.056.14.056-.14zm.364.224a.848.848 0 0 0-.18-.144c-.057-.033-.115-.054-.186-.08l-.052.14c.073.027.12.045.164.07a.699.699 0 0 1 .148.12l.106-.106zm.017.017-.017-.017-.106.106.017.017.106-.106zm.896.685c-.13-.03-.287-.132-.45-.266a6.589 6.589 0 0 1-.446-.419l-.106.106c.13.13.29.29.457.428.164.136.344.258.51.297l.034-.146zm.269.306a.157.157 0 0 0-.025-.119.402.402 0 0 0-.071-.082.59.59 0 0 0-.085-.065.313.313 0 0 0-.088-.04l-.035.146a.178.178 0 0 1 .043.021c.021.013.044.03.064.048.02.019.035.037.044.051.01.017.004.016.007.004l.146.036zm-.245.314c.058.014.102-.022.124-.046a.382.382 0 0 0 .058-.091 1.11 1.11 0 0 0 .063-.177l-.146-.036a.884.884 0 0 1-.052.148.236.236 0 0 1-.034.055c-.01.012-.002-.005.021 0l-.034.147zm-1.062-.852c.152.157.336.35.52.512.093.081.186.156.276.215.09.058.18.105.266.125l.034-.146a.728.728 0 0 1-.217-.105 2.387 2.387 0 0 1-.26-.201 8.7 8.7 0 0 1-.51-.504l-.109.104zm0-.002.11-.101-.11.101zm-.17-.174c.05.05.107.11.17.176l.108-.104a11.943 11.943 0 0 0-.172-.178l-.106.106zm-.214-.13c.052.018.081.028.11.045a.503.503 0 0 1 .104.085l.106-.106a.642.642 0 0 0-.136-.11.814.814 0 0 0-.135-.056l-.049.142zm.001 0 .048-.142-.048.143zm-.138-.05c.057.022.101.038.137.05l.05-.142c-.036-.012-.078-.026-.131-.048l-.056.14zm-.08-.192c.043.097-.054.14-.054.14h.001l.003.001.013.005.04.015.077.03.056-.139-.08-.03-.039-.016c-.005-.002-.01-.003-.012-.005h-.004v-.001h-.001s-.097.042-.054.14l.054-.14zm-.174.09c.037.017.074.032.12.05l.054-.14a4.132 4.132 0 0 1-.116-.047l-.058.138zm-.065-.026.065.027.058-.138a5.19 5.19 0 0 0-.066-.028l-.057.14zm-.624-.554c.118.35.413.468.624.554l.057-.139c-.216-.088-.445-.185-.539-.463l-.142.048zm1.524-1.378a.06.06 0 0 1 .064-.053l.01-.15a.21.21 0 0 0-.223.192l.15.011zm.315.637c-.164-.166-.337-.344-.315-.637l-.15-.011c-.028.368.198.592.358.754l.107-.106zm.05.051-.05-.05-.107.105.05.05.107-.105zm.089.089a4.287 4.287 0 0 1-.088-.089l-.108.105c.027.029.056.057.091.091l.105-.107zm.104.101-.06-.059-.031-.03-.01-.009-.002-.002-.001-.001s-.106.001-.105.107l.105-.107c.001.106-.105.107-.105.107l.001.001.003.003.01.009.03.03.06.058.105-.107zM14 8.89a2.806 2.806 0 0 1-.102-.096l-.106.107c.044.043.079.075.107.1l.1-.111zm.184.258a.643.643 0 0 0-.082-.154c-.03-.04-.064-.07-.102-.104l-.1.11a.62.62 0 0 1 .082.084c.02.025.038.058.063.12l.14-.057zm.09.23a12.808 12.808 0 0 0-.09-.23l-.139.056.088.228.14-.053zm.592 1.132a.726.726 0 0 1-.16-.18 2.398 2.398 0 0 1-.159-.288 8.723 8.723 0 0 1-.274-.663l-.14.053c.078.205.173.454.279.675.053.11.11.216.17.306a.87.87 0 0 0 .195.218l.089-.12zm.14-.162a.879.879 0 0 1-.107.116.238.238 0 0 1-.052.037c-.015.007 0-.005.019.01l-.089.12c.049.036.103.02.132.007a.375.375 0 0 0 .09-.062c.053-.047.102-.106.126-.138l-.12-.09zm-.098-.176a.178.178 0 0 1 .032.037.5.5 0 0 1 .04.069.258.258 0 0 1 .02.064c.003.02-.002.016.005.006l.12.09a.157.157 0 0 0 .024-.119.401.401 0 0 0-.033-.104.589.589 0 0 0-.053-.092.314.314 0 0 0-.066-.072l-.089.121zm-.607-1.045c.069.17.154.381.254.573.098.19.216.37.353.472l.09-.12c-.109-.08-.213-.234-.31-.421a6.586 6.586 0 0 1-.248-.56l-.139.056zm-.009-.023.01.023.138-.056-.009-.023-.139.056zm-.212-.296c.056.054.092.088.123.128a.75.75 0 0 1 .09.168l.138-.056a.842.842 0 0 0-.109-.203c-.04-.052-.085-.094-.14-.146l-.102.109zm-.099-.095c.038.038.07.068.099.095l.103-.11c-.028-.026-.06-.055-.096-.091l-.106.106zm0-.209h.001c.005.102-.1.113-.104.108l.002.003.01.01.03.029.061.06.106-.107a14.692 14.692 0 0 0-.062-.06l-.03-.03-.01-.01-.003-.002v-.001h-.001c-.005-.005-.11.006-.105.107l.106-.107zm-.19.022.086.086.105-.108a4.194 4.194 0 0 1-.083-.083l-.108.105zm-.063-.06c.025.024.046.042.063.06l.108-.105c-.022-.022-.047-.044-.071-.066l-.1.112zm-.272-.544c-.022.285.16.444.272.545l.1-.112c-.116-.103-.238-.217-.222-.421l-.15-.012zm-.053-.06c.033.003.056.03.053.06l.15.012a.206.206 0 0 0-.192-.221l-.01.15z"/><path fill="#FFC125" fill-rule="evenodd" d="M16 7a.12.12 0 0 0-.118.11l-.215 3.048h.667l-.215-3.047A.12.12 0 0 0 16 7zm4.98 4.934a.12.12 0 0 0-.111-.119l-3.047-.214v.666l3.047-.214a.12.12 0 0 0 .11-.119zm-4.86 4.824a.12.12 0 0 1-.239 0l-.214-3.047h.667l-.215 3.047zm-5.099-4.824a.12.12 0 0 0 .111.12l3.047.213v-.666l-3.047.214a.12.12 0 0 0-.11.12zm8.399-3.436a.12.12 0 0 1 .165.171l-2.043 2.271-.463-.48 2.34-1.962zm.04 6.986a.12.12 0 0 0 .008-.163l-1.963-2.34-.48.463 2.272 2.042a.12.12 0 0 0 .162-.002zm-6.879-.114a.12.12 0 0 1-.165-.17l2.043-2.272.463.48-2.34 1.962zm-.04-6.985a.12.12 0 0 0-.008.162l1.963 2.341.48-.463-2.272-2.043a.12.12 0 0 0-.162.003zm1.526-.878a.12.12 0 0 1 .22-.09l1.34 2.745-.618.25-.942-2.905zm6.55 2.579a.12.12 0 0 0-.148-.069l-2.905.943.25.618 2.745-1.34a.12.12 0 0 0 .058-.152zm-2.683 6.276a.12.12 0 0 1-.22.089l-1.34-2.745.618-.25.942 2.906zm-6.55-2.58a.12.12 0 0 0 .147.07l2.906-.943-.25-.618-2.745 1.34a.12.12 0 0 0-.058.152zm6.41-6.334a.12.12 0 0 1 .218.093l-.993 2.888-.614-.26 1.388-2.721zm2.79 6.414a.12.12 0 0 0-.056-.153l-2.721-1.388-.26.614 2.888.993a.12.12 0 0 0 .149-.066zm-6.376 2.559a.12.12 0 0 1-.22-.093l.994-2.889.614.26-1.388 2.722zm-2.79-6.415a.119.119 0 0 0 .055.153l2.72 1.388.261-.614-2.888-.993a.12.12 0 0 0-.149.066z" clip-rule="evenodd"/><path fill="#984111" d="m15.882 7.11.074.006-.074-.005zm-.215 3.048-.075-.005-.005.08h.08v-.075zm.667 0v.075h.08l-.005-.08-.075.005zm-.215-3.047.075-.005-.075.005zm4.75 4.704-.006.075.006-.075zm-3.047-.214.005-.075-.08-.006v.08h.075zm0 .666h-.075v.081l.08-.006-.006-.075zm3.047-.214.005.075-.005-.075zm-4.75 4.705-.075-.006.075.006zm-.237 0-.075.005.075-.005zm-.215-3.047v-.075h-.08l.005.08.075-.005zm.667 0 .075.005.005-.08h-.08v.075zm-5.202-1.658.006-.075-.006.075zm3.047.214-.005.075.08.006v-.08h-.075zm0-.666h.075v-.08l-.08.005.005.075zm-3.047.214-.005-.074.005.074zm8.288-3.317-.049-.057.049.057zm.165.171.056.05-.056-.05zm-2.043 2.271-.054.052.056.058.054-.06-.056-.05zm-.463-.48-.048-.057-.062.052.056.058.054-.053zm2.389 4.861.057-.048-.057.048zm-.009.163.052.053-.052-.053zm-1.954-2.504.058-.048-.052-.061-.058.056.052.053zm-.48.463-.051-.053-.058.055.06.054.05-.056zm2.272 2.043-.05.056.05-.056zm-6.878-.124-.054.052.054-.052zm.162.008-.048-.057.048.057zm-.165-.17-.056-.05.056.05zm2.043-2.272.054-.052-.056-.058-.054.06.056.05zm.463.48.048.057.062-.051-.056-.058-.054.052zm-2.389-4.86.058-.049-.058.048zm.009-.163-.052-.054.052.054zm1.954 2.503-.058.048.052.062.058-.056-.052-.054zm.48-.463.051.054.058-.056-.06-.054-.05.056zm-2.272-2.043-.05.056.05-.056zm1.431-1.023-.028-.07.028.07zm-.068.148.07-.024-.07.024zm.22-.09.067-.032-.067.033zm1.34 2.745.028.07.075-.03-.035-.072-.068.032zm-.618.25-.071.023.025.077.074-.03-.028-.07zm5.46-.395.024.071-.023-.07zm.148.069-.07.028.07-.028zm-3.053.874-.023-.072-.077.025.03.075.07-.028zm.25.618-.07.028.03.075.073-.036-.033-.067zm2.745-1.34.032.067-.032-.067zm-2.693 6.271-.029-.07.029.07zm.068-.147-.071.023.071-.023zm-.22.089-.068.033.068-.033zm-1.34-2.745-.028-.07-.075.03.035.073.067-.033zm.618-.25.071-.023-.025-.076-.074.03.028.07zm-5.46.395.023.072-.024-.072zm-.148-.068.07-.028-.07.028zm3.053-.874.023.071.076-.025-.03-.074-.07.028zm-.25-.618.07-.029-.03-.074-.073.035.033.068zm-2.745 1.34-.033-.068.033.068zm6.504-6.239.03-.069-.03.07zm-.153.056-.067-.034.067.034zm.219.093.07.024-.07-.024zm-.993 2.888-.03.07.075.03.026-.075-.071-.025zm-.614-.26-.067-.034-.036.072.074.03.03-.068zm4.123 3.54.034-.066-.034.066zm.056.153.069.03-.07-.03zm-2.777-1.54.034-.067-.072-.037-.031.074.069.03zm-.26.613-.07-.03-.031.075.076.026.025-.07zm2.888.993-.024.071.024-.07zm-6.38 2.548-.03.07.03-.07zm.153-.055.067.034-.067-.034zm-.22-.093-.07-.025.07.025zm.994-2.889.03-.069-.075-.031-.026.076.071.024zm.614.26.066.035.037-.072-.074-.032-.03.07zm-4.123-3.54-.034.067.034-.067zm-.056-.153.07.03-.07-.03zm2.777 1.541-.034.067.072.036.03-.074-.068-.029zm.26-.614.07.03.03-.074-.075-.027-.025.071zm-2.888-.993.024-.07-.024.07zm4.39-2.824A.044.044 0 0 1 16 7.075v-.15a.194.194 0 0 0-.193.18l.15.011zm-.214 3.047.214-3.047-.15-.01-.214 3.047.15.01zm.592-.08h-.667v.15h.667v-.15zm-.29-2.967.215 3.047.15-.01-.215-3.047-.15.01zM16 7.075c.024 0 .043.018.044.041l.15-.01A.194.194 0 0 0 16 6.925v.15zm4.863 4.815a.045.045 0 0 1 .041.044h.15a.194.194 0 0 0-.18-.193l-.01.15zm-3.047-.214 3.047.214.01-.15-3.046-.214-.01.15zm.08.591v-.666h-.15v.666h.15zm2.967-.289-3.047.215.01.15 3.048-.215-.01-.15zm.041-.044a.044.044 0 0 1-.04.044l.01.15a.194.194 0 0 0 .18-.194h-.15zM16 16.944a.194.194 0 0 0 .194-.181l-.15-.01a.044.044 0 0 1-.044.04v.15zm-.193-.181c.007.102.091.18.193.18v-.15a.044.044 0 0 1-.044-.04l-.15.01zm-.215-3.047.215 3.047.15-.01-.215-3.048-.15.01zm.742-.08h-.667v.15h.667v-.15zm-.14 3.127.215-3.047-.15-.01-.215 3.046.15.01zm-5.056-4.785a.044.044 0 0 1-.041-.044h-.15c0 .102.078.187.18.194l.01-.15zm3.047.215-3.047-.215-.01.15 3.046.214.01-.15zm-.08-.592v.666h.15v-.666h-.15zm-2.967.29 3.047-.215-.01-.15-3.048.215.01.15zm-.041.043c0-.023.017-.042.04-.044l-.01-.15a.194.194 0 0 0-.18.194h.15zm8.539-3.48a.194.194 0 0 0-.264-.013l.096.115a.044.044 0 0 1 .06.003l.108-.104zm.005.265a.194.194 0 0 0-.005-.264l-.108.104a.044.044 0 0 1 .001.06l.112.1zm-2.043 2.271 2.043-2.27-.112-.101-2.043 2.27.112.101zm-.573-.477.463.48.108-.105-.463-.48-.108.105zm2.347-2.072-2.341 1.962.096.115 2.34-1.962-.095-.115zm.038 6.928a.044.044 0 0 1-.003.06l.104.108a.194.194 0 0 0 .014-.264l-.115.096zm-1.962-2.34 1.962 2.34.115-.096-1.962-2.34-.115.096zm-.37.469.48-.464-.105-.107-.48.463.105.107zm2.269 1.933-2.271-2.043-.1.111 2.27 2.043.1-.111zm.06-.001a.044.044 0 0 1-.06 0l-.1.112a.194.194 0 0 0 .264-.005l-.104-.107zm-7.042-.016c.07.073.186.08.264.014l-.096-.115a.044.044 0 0 1-.06-.003l-.108.104zm-.005-.265a.194.194 0 0 0 .005.265l.108-.104a.044.044 0 0 1-.001-.06l-.112-.1zm2.043-2.27-2.043 2.27.112.1 2.043-2.27-.112-.1zm.573.477-.463-.48-.108.104.463.48.108-.104zm-2.347 2.072 2.341-1.963-.096-.115-2.341 1.963.096.115zm-.038-6.929a.044.044 0 0 1 .003-.06l-.104-.108a.194.194 0 0 0-.014.264l.115-.096zm1.962 2.34L12.591 8.5l-.115.096 1.962 2.341.115-.096zm.37-.468-.48.463.105.108.48-.463-.105-.108zm-2.269-1.933 2.271 2.043.1-.112-2.27-2.043-.1.112zm-.06 0a.044.044 0 0 1 .06 0l.1-.112a.194.194 0 0 0-.264.005l.104.108zm1.513-1.148a.194.194 0 0 0-.112.24l.143-.047a.044.044 0 0 1 .025-.054l-.056-.14zm.248.095a.194.194 0 0 0-.248-.095l.056.139a.044.044 0 0 1 .057.021l.134-.065zm1.34 2.745-1.34-2.745-.135.065 1.34 2.745.135-.066zm-.658.352.618-.25-.056-.14-.618.25.056.14zM13.995 7.53l.943 2.905.143-.046-.943-2.906-.143.047zm6.498 2.558a.044.044 0 0 1 .054.026l.14-.056a.194.194 0 0 0-.24-.112l.046.142zm-2.906.943 2.906-.943-.047-.142-2.905.942.046.143zm.296.519-.25-.618-.139.056.25.618.14-.056zm2.643-1.38-2.745 1.34.066.135 2.744-1.34-.065-.135zm.021-.056a.044.044 0 0 1-.021.056l.066.135a.194.194 0 0 0 .094-.247l-.139.056zm-2.653 6.465a.194.194 0 0 0 .112-.24l-.143.046a.044.044 0 0 1-.026.055l.057.139zm-.248-.095a.194.194 0 0 0 .248.095l-.056-.14a.044.044 0 0 1-.057-.021l-.135.066zm-1.34-2.745 1.34 2.745.135-.066-1.34-2.745-.135.066zm.658-.352-.618.25.056.139.618-.25-.056-.14zm1.042 2.952-.943-2.906-.143.046.943 2.906.143-.046zm-6.498-2.559a.044.044 0 0 1-.054-.025l-.14.056a.194.194 0 0 0 .24.112l-.046-.143zm2.906-.943-2.906.943.047.143 2.905-.943-.046-.143zm-.296-.518.25.618.138-.056-.25-.619-.138.057zm-2.643 1.38 2.745-1.341-.066-.135-2.745 1.34.066.135zm-.021.056a.044.044 0 0 1 .021-.057l-.066-.135a.194.194 0 0 0-.095.248l.14-.056zm6.521-6.432a.194.194 0 0 0-.249.09l.134.069c.01-.02.035-.03.057-.02l.058-.139zm.108.242a.194.194 0 0 0-.108-.242l-.058.138c.02.01.032.033.024.055l.142.05zm-.993 2.889.993-2.889-.142-.049-.993 2.889.142.049zm-.714-.216.613.26.06-.138-.615-.26-.058.138zm1.35-2.824-1.388 2.72.134.069 1.388-2.721-.134-.068zm2.768 6.362c.02.01.03.036.02.057l.139.059a.194.194 0 0 0-.09-.25l-.07.134zm-2.721-1.388 2.72 1.388.07-.133-2.722-1.388-.068.133zm-.157.576.26-.613-.138-.059-.26.614.137.058zm2.843.893-2.888-.993-.049.142 2.889.993.048-.142zm.056-.024a.044.044 0 0 1-.056.024l-.048.142a.194.194 0 0 0 .242-.107l-.138-.06zm-6.49 2.712c.095.04.203 0 .25-.09l-.134-.068a.044.044 0 0 1-.057.02l-.058.138zm-.107-.242a.194.194 0 0 0 .108.242l.058-.138a.044.044 0 0 1-.024-.055l-.142-.049zm.993-2.888-.993 2.888.142.05.993-2.89-.142-.048zm.714.216-.614-.261-.058.138.613.26.059-.138zm-1.35 2.824 1.387-2.721-.133-.069-1.388 2.722.134.068zm-2.768-6.363a.044.044 0 0 1-.02-.056l-.139-.059c-.04.094 0 .203.09.249l.069-.134zm2.721 1.388-2.721-1.388-.068.134 2.72 1.388.069-.134zm.157-.576-.26.614.138.058.26-.613-.138-.059zm-2.844-.893 2.889.993.049-.142-2.889-.993-.049.142zm-.055.025a.044.044 0 0 1 .055-.025l.05-.142a.194.194 0 0 0-.243.108l.138.059z"/><path fill="#FFC125" fill-rule="evenodd" stroke="#984111" stroke-width=".15" d="M16 13.842c1.067 0 1.933-.854 1.933-1.908 0-1.053-.866-1.908-1.933-1.908-1.068 0-1.934.855-1.934 1.908 0 1.054.866 1.908 1.934 1.908z" clip-rule="evenodd"/><path fill="#984111" d="m15.814 11.437-.125-.082a.81.81 0 0 0-.186-.093.277.277 0 0 0-.081-.014c-.118 0-.284.073-.494.223l-.078-.107c.23-.164.42-.248.572-.248.039 0 .08.007.121.02a.923.923 0 0 1 .218.108l.124.081.048.027c.159 0 .169.57.056.744a.497.497 0 0 1-.117.124l-.086.064c-.04.03-.052.048-.052.07 0 .003.048.015.155.01a2.35 2.35 0 0 0 .073-.005c.076-.006.086-.006.11-.006v.131c-.02 0-.03 0-.1.006a2.864 2.864 0 0 1-.077.005c-.188.009-.294-.017-.294-.142 0-.071.034-.12.102-.173.012-.008.07-.05.086-.063a.372.372 0 0 0 .088-.092c.034-.053.055-.192.053-.34a.928.928 0 0 0-.026-.205.324.324 0 0 1-.09-.043z"/><path fill="#984111" fill-rule="evenodd" d="m16.353 11.39-.071.046a.325.325 0 0 1-.09.044.928.928 0 0 0-.026.205c-.003.148.019.287.053.34a.372.372 0 0 0 .087.092l.054.04.032.023c.069.053.103.102.103.173 0 .125-.107.151-.294.142a2.864 2.864 0 0 1-.077-.005 1.282 1.282 0 0 0-.1-.006v-.131c.024 0 .034 0 .11.006l.073.005c.107.005.155-.007.155-.01 0-.022-.013-.04-.052-.07l-.026-.02a2.943 2.943 0 0 1-.06-.044.499.499 0 0 1-.117-.124c-.113-.175-.103-.744.056-.744h.001l.047-.027a4.665 4.665 0 0 0 .124-.08.923.923 0 0 1 .217-.109.408.408 0 0 1 .122-.02c.152 0 .341.084.572.248l-.078.107c-.21-.15-.376-.223-.494-.223a.277.277 0 0 0-.081.014.81.81 0 0 0-.186.093l-.054.035zm-.157.08-.002.003.002-.002z" clip-rule="evenodd"/><path fill="#984111" d="m15.666 12.723.034.067-.034-.067zm.677.001.039-.064-.039.064zm.069.042.062.042.045-.066-.068-.04-.039.064zm-.046.065-.061-.042.061.042zm-.723.008.057-.049-.057.049zm-.062-.073-.034-.067-.086.043.063.073.057-.05zm.251.051-.022-.071-.13.04.103.088.049-.057zm.354-.001.054.052.082-.085-.111-.038-.024.07zm-.573-.043-.04-.064-.07.043.05.067.06-.046zm.77 0 .065.04.035-.06-.054-.04-.045.06zm-.858-.122.04.064-.04-.064zm.957.009-.046.059.046-.06zm.046.035.046-.06-.046.06zm.053.04.064.04.034-.058-.052-.04-.046.059zm-.034.058-.065-.039.065.039zm-.03.05.064.038-.064-.039zm-1.031.011-.06.045.06-.045zm-.043-.057.06-.045-.06.045zm-.048-.065-.04-.064-.07.043.05.066.06-.045zm.069-.043-.04-.064.04.064zm.553-.125a.85.85 0 0 0-.384.092l.067.134a.7.7 0 0 1 .317-.076v-.15zm.365.096a.696.696 0 0 0-.365-.096v.15c.11 0 .205.025.288.075l.077-.129zm.069.041-.069-.041-.077.129.068.04.078-.128zm-.023.173.046-.066-.124-.085-.045.066.123.085zm-.41.25c.171 0 .307-.101.41-.25l-.123-.085c-.088.126-.183.185-.288.185v.15zm-.432-.236c.12.14.264.236.431.236v-.15c-.105 0-.21-.06-.317-.184l-.114.098zm-.062-.073.062.073.114-.098-.063-.073-.113.098zm.109-.16-.086.044.067.134.086-.043-.067-.134zm.384.169c-.032 0-.077-.013-.136-.064l-.098.114a.36.36 0 0 0 .234.1v-.15zm.116-.06c-.048.049-.086.06-.116.06v.15a.306.306 0 0 0 .223-.106l-.107-.104zm-.116.1a.42.42 0 0 1 .145.023l.049-.142a.588.588 0 0 0-.194-.03v.15zm-.163.025a.542.542 0 0 1 .163-.025v-.15c-.07 0-.14.01-.207.032l.044.143zm.163.067c-.1 0-.216-.058-.345-.228l-.12.09c.144.19.299.288.465.288v-.15zm.303-.222c-.102.167-.205.222-.303.222v.15c.17 0 .313-.101.43-.294l-.127-.078zm-.303-.001a.52.52 0 0 1 .322.1l.09-.12a.667.667 0 0 0-.412-.13v.15zm-.366.104a.696.696 0 0 1 .366-.104v-.15a.846.846 0 0 0-.443.126l.077.129zm.366-.404a.998.998 0 0 0-.532.154l.08.128a.848.848 0 0 1 .452-.132v-.15zm.511.167a.815.815 0 0 0-.51-.167v.15c.16 0 .301.045.418.136l.092-.119zm.046.036-.046-.036-.092.119.046.035.092-.118zm.053.04-.053-.04-.092.118.053.041.092-.118zm-.016.155.034-.057-.129-.077-.034.057.129.077zm-.03.05.03-.05-.129-.077-.03.05.13.077zm-.564.375c.244 0 .431-.152.564-.375l-.128-.077c-.119.198-.264.302-.436.302v.15zm-.591-.357c.159.214.355.357.591.357v-.15c-.169 0-.326-.102-.471-.296l-.12.09zm-.043-.057.043.057.12-.09-.042-.056-.12.09zm-.049-.066.05.066.12-.09-.05-.065-.12.09zm.09-.151-.069.043.079.128.07-.043-.08-.128zm.061-.038-.06.038.079.127.06-.037-.079-.128zm-.419-1.134.032.067-.032-.067zm0 .361-.033.068.033-.068zm.536 0 .033.068-.033-.068zm0-.361-.032.067.032-.067zm-.526.178-.068-.03.069.03zm.007-.01.056.05-.056-.05zm.048-.033-.033-.068.033.068zm.406 0 .033-.068-.033.068zm.048.033-.056.05.056-.05zm.007.01-.07.029.07-.03zm0 .005-.07-.03.07.03zm-.007.01-.056-.05.056.05zm-.048.033.033.068-.033-.068zm-.406 0-.033.068.033-.068zm-.048-.033-.056.05.056-.05zm-.007-.01-.068.03.069-.03zm1.323-.183-.032-.068.032.068zm0 .361-.032.068.032-.068zm.537 0-.033-.067.033.067zm0-.361-.033.067.033-.067zm-.526.178-.07-.03.07.03zm.007-.01-.057-.05.057.05zm.047-.033.033.068-.033-.068zm.407 0-.033.068.033-.068zm.047.033-.056.05.056-.05zm.007.01-.069.029.069-.03zm0 .005-.069-.03.069.03zm-.007.01-.056-.05.056.05zm-.047.033-.033-.068.033.068zm-.407 0 .033-.068-.033.068zm-.047-.033-.057.05.057-.05zm-.007-.01-.07.03.07-.03zm-1.312-.116a.559.559 0 0 1 .236-.047v-.15a.707.707 0 0 0-.3.062l.064.135zm-.097.113c0-.043.037-.083.097-.113l-.065-.135c-.073.035-.182.113-.182.248H15zm.097.114c-.06-.03-.097-.07-.097-.114h-.15c0 .136.11.214.182.249l.065-.135zm.236.046a.56.56 0 0 1-.236-.046l-.065.135c.085.04.192.061.301.061v-.15zm.236-.046a.56.56 0 0 1-.236.046v.15c.11 0 .216-.02.3-.061l-.064-.135zm.097-.114c0 .044-.036.084-.097.114l.065.135c.073-.035.182-.113.182-.249h-.15zm-.097-.113c.06.03.097.07.097.113h.15c0-.135-.109-.213-.182-.248l-.065.135zm-.236-.047c.092 0 .175.018.236.047l.065-.135a.707.707 0 0 0-.3-.062v.15zm-.326.128a.081.081 0 0 0-.007.032h.15v.007l-.002.008a.063.063 0 0 1-.003.012l-.138-.059zm.019-.03a.109.109 0 0 0-.02.03l.139.059a.036.036 0 0 1-.007.01l-.112-.099zm.071-.05a.222.222 0 0 0-.071.05l.113.1s.005-.007.023-.015l-.065-.136zm.236-.048a.559.559 0 0 0-.236.047l.065.136a.414.414 0 0 1 .171-.033v-.15zm.236.047a.559.559 0 0 0-.236-.047v.15a.39.39 0 0 1 .17.033l.066-.136zm.071.051a.224.224 0 0 0-.071-.05l-.065.134c.018.01.024.016.024.015l.112-.099zm.02.03a.114.114 0 0 0-.02-.03l-.112.1c0-.001-.004-.005-.006-.011l.138-.059zm.006.032a.081.081 0 0 0-.006-.032l-.138.059a.067.067 0 0 1-.005-.027h.15zm-.006.033a.081.081 0 0 0 .006-.033h-.15a.136.136 0 0 1 .002-.014.058.058 0 0 1 .004-.012l.138.059zm-.02.03a.115.115 0 0 0 .02-.03l-.138-.06c.002-.006.005-.009.006-.01l.112.1zm-.071.05a.224.224 0 0 0 .071-.05l-.112-.1s-.006.007-.024.015l.065.136zm-.236.047a.56.56 0 0 0 .236-.046l-.065-.136a.412.412 0 0 1-.17.032v.15zm-.236-.046a.56.56 0 0 0 .236.046v-.15a.413.413 0 0 1-.17-.032l-.066.136zm-.071-.051a.218.218 0 0 0 .071.05l.065-.135c-.018-.008-.024-.015-.024-.014l-.112.099zm-.02-.03a.13.13 0 0 0 .02.03l.113-.1.005.01-.137.06zm-.006-.033c0 .011.002.022.007.033l.138-.06a.064.064 0 0 1 .005.027H15zm1.43-.113a.56.56 0 0 1 .236-.047v-.15a.707.707 0 0 0-.3.062l.065.135zm-.097.113c0-.043.037-.083.098-.113l-.065-.135c-.073.035-.183.113-.183.248h.15zm.098.114c-.061-.03-.098-.07-.098-.114h-.15c0 .136.11.214.183.249l.065-.135zm.235.046a.561.561 0 0 1-.235-.046l-.065.135c.084.04.191.061.3.061v-.15zm.236-.046a.561.561 0 0 1-.236.046v.15c.11 0 .216-.02.301-.061l-.065-.135zm.098-.114c0 .044-.037.084-.098.114l.065.135c.073-.035.183-.113.183-.249H17zm-.098-.113c.061.03.098.07.098.113h.15c0-.135-.11-.213-.183-.248l-.065.135zm-.236-.047a.56.56 0 0 1 .236.047l.065-.135a.708.708 0 0 0-.3-.062v.15zm-.326.128a.081.081 0 0 0-.007.032h.15v.007l-.001.008a.064.064 0 0 1-.004.012l-.138-.059zm.02-.03a.111.111 0 0 0-.02.03l.138.059-.006.01-.113-.099zm.07-.05a.224.224 0 0 0-.07.05l.112.1s.006-.007.024-.015l-.065-.136zm.236-.048a.56.56 0 0 0-.235.047l.065.136a.413.413 0 0 1 .17-.033v-.15zm.236.047a.56.56 0 0 0-.236-.047v.15a.4.4 0 0 1 .171.033l.065-.136zm.072.051a.224.224 0 0 0-.072-.05l-.065.134c.018.01.024.016.024.015l.113-.099zm.019.03a.111.111 0 0 0-.02-.03l-.112.1-.006-.011.138-.059zm.007.032a.081.081 0 0 0-.007-.032l-.138.059a.064.064 0 0 1-.005-.02v-.007H17zm-.007.033a.081.081 0 0 0 .007-.033h-.15v-.006l.001-.008a.066.066 0 0 1 .004-.012l.138.059zm-.02.03a.113.113 0 0 0 .02-.03l-.138-.06.006-.01.113.1zm-.07.05a.224.224 0 0 0 .07-.05l-.112-.1s-.006.007-.024.015l.065.136zm-.237.047a.561.561 0 0 0 .236-.046l-.065-.136a.412.412 0 0 1-.17.032v.15zm-.235-.046c.06.028.143.046.235.046v-.15a.412.412 0 0 1-.17-.032l-.065.136zm-.072-.051a.223.223 0 0 0 .072.05l.065-.135c-.018-.008-.024-.015-.024-.014l-.113.099zm-.02-.03c.005.01.012.02.02.03l.113-.1.006.01-.138.06zm-.006-.033c0 .011.002.022.007.033l.138-.06a.066.066 0 0 1 .005.021v.006h-.15z"/></svg>