
<svg xmlns="http://www.w3.org/2000/svg" width="32" height="24" fill="none"><mask id="a" width="32" height="24" x="0" y="0" maskUnits="userSpaceOnUse" style="mask-type:luminance"><path fill="#fff" d="M0 0h32v24H0z"/></mask><g mask="url(#a)"><path fill="#093" fill-rule="evenodd" d="M0 0v24h32V0H0z" clip-rule="evenodd"/><mask id="b" width="32" height="24" x="0" y="0" maskUnits="userSpaceOnUse" style="mask-type:luminance"><path fill="#fff" fill-rule="evenodd" d="M0 0v24h32V0H0z" clip-rule="evenodd"/></mask><g mask="url(#b)"><g fill-rule="evenodd" clip-rule="evenodd" filter="url(#c)"><path fill="#FFD221" d="m15.927 3.704 12.202 8.504L15.76 20.17 3.809 12.043l12.118-8.339z"/><path fill="url(#d)" d="m15.927 3.704 12.202 8.504L15.76 20.17 3.809 12.043l12.118-8.339z"/></g><path fill="#2E42A5" fill-rule="evenodd" d="M16 17.2a5 5 0 1 0 0-10 5 5 0 0 0 0 10z" clip-rule="evenodd"/><mask id="e" width="10" height="11" x="11" y="7" maskUnits="userSpaceOnUse" style="mask-type:luminance"><path fill="#fff" fill-rule="evenodd" d="M16 17.2a5 5 0 1 0 0-10 5 5 0 0 0 0 10z" clip-rule="evenodd"/></mask><g mask="url(#e)"><path fill="#F7FCFF" fill-rule="evenodd" d="m14.38 14.57-.223.117.042-.248-.18-.176.25-.037.111-.226.112.226.25.037-.181.176.042.248-.223-.117zm2 0-.223.117.042-.248-.18-.176.25-.037.111-.226.112.226.25.037-.181.176.042.248-.223-.117zm0 1.2-.223.118.042-.25-.18-.175.25-.036.111-.227.112.227.25.036-.181.176.042.249-.223-.118zm-1-4.2-.223.117.042-.248-.18-.176.25-.037.111-.226.112.226.25.037-.181.176.042.248-.223-.117zm0 2-.223.117.042-.248-.18-.176.25-.037.111-.226.112.226.25.037-.181.176.042.248-.223-.117zm-1.4-1-.224.117.043-.248-.18-.176.249-.037.112-.226.111.226.25.037-.18.176.042.248-.223-.117zm-1.4.8-.224.117.043-.248-.181-.177.25-.036.111-.226.112.226.25.036-.181.177.043.248-.224-.117zm4.6-3.4-.223.117L17 9.84l-.18-.177.25-.036.11-.226.113.226.25.036-.181.177.042.248-.223-.117z" clip-rule="evenodd"/><path fill="#F7FCFF" d="m9.926 10.997.15-1.994c4.798.362 8.585 1.94 11.313 4.745l-1.434 1.395c-2.364-2.433-5.692-3.819-10.03-4.146z"/><path fill="#093" d="m12.29 10.603.05-.498c3.094.32 5.747 1.505 7.951 3.552l-.34.366c-2.125-1.971-4.676-3.11-7.662-3.42z"/></g></g></g><defs><linearGradient id="d" x1="32" x2="32" y1="24" y2="0" gradientUnits="userSpaceOnUse"><stop stop-color="#FFC600"/><stop offset="1" stop-color="#FFDE42"/></linearGradient><filter id="c" width="24.32" height="16.467" x="3.809" y="3.704" color-interpolation-filters="sRGB" filterUnits="userSpaceOnUse"><feFlood flood-opacity="0" result="BackgroundImageFix"/><feColorMatrix in="SourceAlpha" result="hardAlpha" values="0 0 0 0 0 0 0 0 0 0 0 0 0 0 0 0 0 0 127 0"/><feOffset/><feColorMatrix values="0 0 0 0 0.0313726 0 0 0 0 0.368627 0 0 0 0 0 0 0 0 0.28 0"/><feBlend in2="BackgroundImageFix" result="effect1_dropShadow_15002_631"/><feBlend in="SourceGraphic" in2="effect1_dropShadow_15002_631" result="shape"/></filter></defs></svg>