
<svg xmlns="http://www.w3.org/2000/svg" width="32" height="24" fill="none"><mask id="a" width="32" height="24" x="0" y="0" maskUnits="userSpaceOnUse" style="mask-type:luminance"><path fill="#fff" d="M0 0h32v24H0z"/></mask><g mask="url(#a)"><path fill="#3D58DB" fill-rule="evenodd" d="M0 0v24h32V0H0z" clip-rule="evenodd"/><mask id="b" width="32" height="24" x="0" y="0" maskUnits="userSpaceOnUse" style="mask-type:luminance"><path fill="#fff" fill-rule="evenodd" d="M0 0v24h32V0H0z" clip-rule="evenodd"/></mask><g mask="url(#b)"><path fill="#3D58DB" stroke="#F7FCFF" stroke-width="4" d="M0 8h-2v8h36V8H0z"/></g><path fill="#E31D1C" fill-rule="evenodd" d="M0 0v24l18-12L0 0z" clip-rule="evenodd"/><mask id="c" width="18" height="24" x="0" y="0" maskUnits="userSpaceOnUse" style="mask-type:luminance"><path fill="#fff" fill-rule="evenodd" d="M0 0v24l18-12L0 0z" clip-rule="evenodd"/></mask><g mask="url(#c)"><path fill="#F7FCFF" fill-rule="evenodd" d="m6.688 14.217-3.672 1.938 1.787-3.894-2.278-2.08 2.813-.104 1.35-3.52 1.03 3.52h2.807l-1.871 2.184 1.489 3.894-3.455-1.938z" clip-rule="evenodd"/></g></g></svg>