<svg xmlns="http://www.w3.org/2000/svg" width="32" height="24" fill="none"><mask id="a" width="32" height="24" x="0" y="0" maskUnits="userSpaceOnUse" style="mask-type:luminance"><path fill="#fff" d="M0 0h32v24H0z"/></mask><g mask="url(#a)"><path fill="#2E42A5" fill-rule="evenodd" d="M0 0v24h32V0H0z" clip-rule="evenodd"/><mask id="b" width="32" height="24" x="0" y="0" maskUnits="userSpaceOnUse" style="mask-type:luminance"><path fill="#fff" fill-rule="evenodd" d="M0 0v24h32V0H0z" clip-rule="evenodd"/></mask><g mask="url(#b)"><path fill="#FECA00" fill-rule="evenodd" d="M0 0v12h32V0H0z" clip-rule="evenodd"/><path fill="#E31D1C" fill-rule="evenodd" d="M0 18v6h32v-6H0z" clip-rule="evenodd"/><path fill="#7B2900" fill-rule="evenodd" d="M9.719 5.714s4.156-1.877 4.534-1.664c.377.213.469.821.795.821.326 0 .982-.192 1.257-.192.274 0 .545.192.545.192h1.17v-.65l5.309 1.493s-3.096.405-3.33.405c-.233 0 0 .333 0 .333s-.441-.333-1.114-.333c-.672 0-2.035.694-2.035.694l.495 1.067-.495.313-.545-.313s.035-.877-.2-.877c-.235 0-.406.563-.406.877 0 .313-.651.313-.651.313l.29-.587s.29-.973-.29-.973-3.225-.514-3.225-.514l-.676.333.242-.738h-1.67z" clip-rule="evenodd"/><path fill="#E31D1C" fill-rule="evenodd" d="M11.503 15.775c-.649-1.458 0-4.688 0-4.688l1.26.661c-.149.754-.172 2.178.3 3.343.471 1.165 2.255 2.083 2.255 2.083s.9.2-.468.345c-1.367.144-2.698-.286-3.347-1.744zm3.232 5.742c-.406 0 .812-2.709.812-2.709l.376-.753s.046 3.19-.211 3.462c-.165.175-.353.126-.574.068a1.536 1.536 0 0 0-.403-.068z" clip-rule="evenodd"/><path fill="#2E42A5" fill-rule="evenodd" d="M10.328 15.298c-.543-2.177.305-5.133.305-5.133l.853.61c-.125 1.125-.125 4.036.596 5.297.722 1.262 3.888 1.791 3.888 1.791s-.625.462-1.77.678c-1.145.216-3.328-1.066-3.872-3.243zm3.63 5.92.501-1.793.708-.866h.509s-.716 3.08-1.217 3.08c-.325 0-.227-.178-.12-.376.059-.107.12-.219.12-.313 0-.266-.502.267-.502.267z" clip-rule="evenodd"/><path fill="#FECA00" fill-rule="evenodd" d="M9.5 15.671c-.27-1.873.269-6.35.269-6.35l.853.609c-.385 1.085-.266 4.196 0 5.741.267 1.545 2.786 2.477 2.786 2.477s-.625.462-1.77.677c-1.145.216-1.869-1.28-2.139-3.154zm4.188 3.745c-.486 0 .212-.697.212-.697h1.163s-.398.984-.89.984c-.245 0-.245-.072-.244-.144 0-.072.001-.143-.241-.143z" clip-rule="evenodd"/><path fill="#E31D1C" fill-rule="evenodd" d="M20.366 15.775c.649-1.458 0-4.688 0-4.688l-1.26.661c.149.754.172 2.178-.3 3.343-.471 1.165-2.255 2.083-2.255 2.083s-.9.2.468.345c1.367.144 2.698-.286 3.347-1.744zm-3.232 5.742c.406 0-.812-2.709-.812-2.709l-.376-.753s-.046 3.19.211 3.462c.165.175.353.126.574.068.123-.033.257-.068.403-.068z" clip-rule="evenodd"/><path fill="#2E42A5" fill-rule="evenodd" d="M21.54 15.298c.544-2.177-.304-5.133-.304-5.133l-.853.61c.125 1.125.125 4.036-.596 5.297-.722 1.262-3.887 1.791-3.887 1.791s.624.462 1.77.678c1.144.216 3.327-1.066 3.87-3.243zm-3.628 5.92-.502-1.793-.708-.866h-.509s.717 3.08 1.217 3.08c.325 0 .227-.178.12-.376-.059-.107-.12-.219-.12-.313 0-.266.502.267.502.267z" clip-rule="evenodd"/><path fill="#FECA00" fill-rule="evenodd" d="M22.37 15.671c.27-1.873-.27-6.35-.27-6.35l-.853.609c.386 1.085.266 4.196 0 5.741s-2.786 2.477-2.786 2.477.625.462 1.77.677c1.145.216 1.87-1.28 2.139-3.154zm-4.189 3.745c.486 0-.212-.697-.212-.697h-1.163s.398.984.89.984c.246 0 .245-.072.244-.144 0-.072-.001-.143.241-.143z" clip-rule="evenodd"/><path fill="#6FAE21" d="m10.203 10.446.092-.553 1.6.104-1.214-1.258.41-.39 1.642 1.702-1.404-2.64.485-.289 1.278 1.88-.61-1.954.525-.208 1.966 3.92-.755-.049.074.237.642.17-.146.543-.298-.078.278.89-.482-.71.84 1.58-2.066-2.14-2.857-.757zm11.723 0-.092-.553-1.6.104 1.214-1.258-.41-.39-1.642 1.702 1.404-2.64-.485-.289-1.279 1.88.61-1.954-.524-.208-1.966 3.92.754-.049-.073.237-.642.17.146.543.297-.078-.278.89.483-.71-.84 1.58 2.066-2.14 2.857-.757z"/><path fill="#171401" d="m11.067 21.311-.413-.385L22.844 8.09l.413.386-12.19 12.834z"/><path fill="#CECECC" fill-rule="evenodd" d="m22.535 8.19.625.59.352-.975-.977.385zM11.376 21.309l-.718-.472-.233.967.95-.495z" clip-rule="evenodd"/><path fill="#171401" d="m10.16 19.398-.412-.386 12.19-12.834.413.386-12.19 12.834z"/><path fill="#CECECC" fill-rule="evenodd" d="m21.629 6.277.625.589.352-.974-.977.385zM10.47 19.396l-.719-.472-.232.967.95-.495z" clip-rule="evenodd"/><path fill="#171401" d="m21.254 21.311.412-.385L9.476 8.09l-.413.386 12.19 12.834z"/><path fill="#CECECC" fill-rule="evenodd" d="m9.785 8.19-.625.59-.352-.975.977.385zm11.16 13.119.718-.472.232.967-.95-.495z" clip-rule="evenodd"/><path fill="#171401" d="m22.389 19.849.412-.386L10.61 6.628l-.413.386 12.19 12.835z"/><path fill="#CECECC" fill-rule="evenodd" d="m10.92 6.727-.625.59-.352-.975.977.385zm11.16 13.119.717-.472.233.968-.95-.496z" clip-rule="evenodd"/><path fill="#B74E01" d="M13.668 16.375h4.533v2.25h-4.533z"/><path fill="#7DB8FF" stroke="#FECA00" stroke-width=".5" d="M15.949 17.287c.898 0 1.675-.578 2.215-1.435.541-.86.868-2.033.868-3.315s-.327-2.455-.868-3.315c-.54-.857-1.317-1.435-2.215-1.435-.9 0-1.676.578-2.216 1.435-.541.86-.868 2.033-.868 3.315s.327 2.455.868 3.315c.54.857 1.317 1.435 2.216 1.435z"/><mask id="c" width="8" height="11" x="12" y="7" maskUnits="userSpaceOnUse" style="mask-type:luminance"><path fill="#fff" stroke="#fff" stroke-width=".5" d="M15.949 17.287c.898 0 1.675-.578 2.215-1.435.541-.86.868-2.033.868-3.315s-.327-2.455-.868-3.315c-.54-.857-1.317-1.435-2.215-1.435-.9 0-1.676.578-2.216 1.435-.541.86-.868 2.033-.868 3.315s.327 2.455.868 3.315c.54.857 1.317 1.435 2.216 1.435z"/></mask><g fill-rule="evenodd" clip-rule="evenodd" mask="url(#c)"><path fill="#6FAE21" d="M12.881 12.61h1.612s1.109.245.554.439c-.554.193-.554.257-.554.532v1.5c0 .215.395.676-.436.676S12.51 12.34 12.51 12.34l.371.269zm6.299.186s-1.498.296-2.524.197c-1.026-.098-1.476-.197-1.476-.197s.715.372.969.684c.254.311.774.85 1.305.85.53 0 1.344.503 1.344.503l.382-2.037z"/><path fill="#F7FCFF" d="M13.32 10.136s1.235.238 1.532.596c.297.357-.393.714 1.406.357 1.8-.357 3.227-.98 3.227 0s-.157 1.884-.931 1.884H15.11c-2.36 0-3.648.722-3.482-.44.165-1.162 1.692-2.397 1.692-2.397z"/></g></g></g></svg>