<svg xmlns="http://www.w3.org/2000/svg" width="32" height="24" fill="none"><g clip-path="url(#a)"><mask id="b" width="32" height="24" x="0" y="0" maskUnits="userSpaceOnUse" style="mask-type:luminance"><path fill="#fff" d="M0 0h32v24H0z"/></mask><g fill-rule="evenodd" clip-rule="evenodd" mask="url(#b)"><path fill="#FBCD17" d="M16 0h16v12H16V0z"/><path fill="#0B9E7A" d="M16 12h16v12H16V12z"/><path fill="#E11C1B" d="M0 0h16v24H0V0z"/><path fill="#1D1D1D" d="m8.93 14.606-3.485 2.418 1.114-4.141L4 10.238l3.465-.143L8.93 6l1.466 4.095h3.458l-2.553 2.788 1.279 3.897-3.65-2.174z"/></g><path fill="url(#c)" d="M0 0h32v24H0z" style="mix-blend-mode:overlay"/></g><rect width="31" height="23" x=".5" y=".5" stroke="#000" stroke-opacity=".1" rx="1.5" style="mix-blend-mode:multiply"/><defs><linearGradient id="c" x1="16" x2="16" y1="0" y2="24" gradientUnits="userSpaceOnUse"><stop stop-color="#fff" stop-opacity=".7"/><stop offset="1" stop-opacity=".3"/></linearGradient><clipPath id="a"><rect width="32" height="24" fill="#fff" rx="2"/></clipPath></defs></svg>