<svg xmlns="http://www.w3.org/2000/svg" width="113" height="48" fill="none"><path fill="url(#a)" fill-rule="evenodd" d="M19.945 12H2.69A2.69 2.69 0 0 0 0 14.687v17.228a2.69 2.69 0 0 0 2.68 2.703h17.268a2.69 2.69 0 0 0 2.686-2.694V14.686A2.69 2.69 0 0 0 19.945 12zM9.762 28.29a.9.9 0 0 1-.903.896H5.085a.896.896 0 0 1-.892-.895V17.069a.895.895 0 0 1 .892-.896h3.77a.899.899 0 0 1 .896.896l.011 11.222zm8.7-5.152a.896.896 0 0 1-.895.896h-3.782a.899.899 0 0 1-.895-.896v-6.07a.899.899 0 0 1 .895-.895h3.771a.895.895 0 0 1 .892.896l.014 6.07z" clip-rule="evenodd"/><path fill="#293856" d="M46.898 13.657v4.374h-5.181v16.587H36.72V18.03h-5.18v-4.374h15.358zm6.358 20.961h-4.62V18.302h4.62v3.124c.877-2.201 2.28-3.51 4.779-3.35v4.833c-3.264-.254-4.78.544-4.78 3.158v8.551zm30.014.127c-3.028 0-4.932-1.45-4.932-4.88V12h4.652v17.225c0 .99.65 1.341 1.45 1.341.23.005.46-.006.69-.033v4.021a6.795 6.795 0 0 1-1.86.19zm9.704 0c-3.028 0-4.935-1.45-4.935-4.88V12h4.652v17.225c0 .99.656 1.341 1.468 1.341.23.005.458-.006.686-.033v4.021a6.772 6.772 0 0 1-1.871.19zm4.098-8.292c0-5.04 2.901-8.488 7.897-8.488 4.995 0 7.836 3.437 7.836 8.488S109.933 35 104.97 35c-4.964 0-7.898-3.54-7.898-8.547zm4.529 0c0 2.454 1.03 4.402 3.369 4.402 2.338 0 3.31-1.948 3.31-4.402s-.998-4.351-3.31-4.351c-2.313 0-3.369 1.893-3.369 4.351zM64.27 27.928c1.294.142 2.594.218 3.895.228 3.538 0 6.526-.95 6.526-4.376 0-3.325-3.071-5.823-6.766-5.823-4.974 0-8.161 3.608-8.161 8.648 0 5.232 2.748 8.339 8.96 8.339a14.9 14.9 0 0 0 5.394-.964v-3.91c-1.595.511-3.39 1.019-5.232 1.019-2.473 0-4.197-.812-4.616-3.162zm3.561-6.41c1.309 0 2.36.888 2.36 2.103 0 1.562-1.648 2.052-3.55 2.052a16.232 16.232 0 0 1-2.414-.192c.06-.762.279-1.503.642-2.176a3.42 3.42 0 0 1 2.962-1.779v-.008z"/><defs><linearGradient id="a" x1="11.316" x2="11.316" y1="34.618" y2="12" gradientUnits="userSpaceOnUse"><stop stop-color="#0052CC"/><stop offset="1" stop-color="#2684FF"/></linearGradient></defs></svg>